<svg width="24" height="24" viewBox="0 0 24 24" fill="none" xmlns="http://www.w3.org/2000/svg">
<path d="M9.29412 18.2145C5.5 19.4644 5.5 15.9827 4 15.5363M14.5882 20V16.8754C14.5882 15.9827 14.6765 15.6256 14.1471 15.0899C16.6176 14.8221 19 13.8401 19 9.73347C18.9989 8.66661 18.5875 7.64205 17.8529 6.87669C18.1975 5.95 18.1658 4.92304 17.7647 4.01992C17.7647 4.01992 16.7941 3.7521 14.6765 5.18049C12.8829 4.70786 10.9995 4.70786 9.20588 5.18049C7.08823 3.7521 6.11765 4.01992 6.11765 4.01992C5.7166 4.92304 5.68488 5.95 6.02941 6.87669C5.29481 7.64205 4.88343 8.66661 4.88235 9.73347C4.88235 13.8401 7.26471 14.8221 9.73529 15.0899C9.20588 15.6256 9.20588 16.1612 9.29412 16.8754V20" stroke="#FAFAFF" stroke-width="2" stroke-linecap="round" stroke-linejoin="round"/>
</svg>
