<svg width="121" height="25" viewBox="0 0 121 25" fill="none" xmlns="http://www.w3.org/2000/svg">
<g clip-path="url(#clip0_415_240)">
<path d="M115.375 23.8717H110.889V3.54245H106.409V0.641357H119.852V3.54245H115.375V23.8717Z" fill="#E38506"/>
<path d="M95.3964 10.3205H100.998V13.2288H95.3993L95.3964 20.9826L104.359 20.9802V23.8717H90.9192V0.641357H104.359V3.54245H95.3964V10.3205Z" fill="#E38506"/>
<path d="M79.7425 10.3205H85.347V13.2288H79.7454L79.7425 20.9826L88.7085 20.9802V23.8717H75.2654V0.641357H88.7085V3.54245H79.7425V10.3205Z" fill="#E38506"/>
<path d="M59.4294 0.641357H67.8993C71.2022 0.641357 72.855 1.96723 72.855 4.62137V10.3492C72.855 12.3752 71.9978 13.6603 70.2862 14.1974L73.3042 23.8717H69.2029L66.3639 14.4875H63.9095V23.8669L59.4265 23.8693L59.4294 0.641357ZM63.9125 11.8358H66.5929C67.8847 11.8358 68.4043 11.2963 68.4043 10.1766L68.4014 5.0961C68.4014 3.97642 67.9023 3.54006 66.6105 3.54006H63.9095V11.8358H63.9125Z" fill="#E38506"/>
<path d="M53.0558 23.8717H48.5698V3.54006H44.0927V0.641357H57.5329V3.54006H53.0558V23.8717Z" fill="#E38506"/>
<path d="M38.3032 6.44593L38.3179 4.84673C38.3267 3.91886 37.7336 3.53045 36.4448 3.52086L35.7549 3.51607C34.4983 3.50648 33.8935 3.95962 33.8847 4.88749L33.8495 8.58939C33.8436 9.02095 33.9288 9.39019 34.1725 9.54123C34.4132 9.69468 34.8125 9.89368 35.3615 10.1334L39.5304 11.7518C40.4463 12.1258 41.0952 12.416 41.4768 12.6245C41.8585 12.8331 42.155 13.0825 42.3664 13.375C42.5778 13.6675 42.6805 14.2237 42.6717 15.0461L42.6247 19.9996C42.5983 22.6129 40.8074 23.9053 37.2521 23.8789L34.5365 23.8597C31.0106 23.8333 29.2608 22.3972 29.2872 19.5464L29.2931 18.0072L33.7291 18.0407L33.7379 19.6327C33.7291 20.5414 34.3574 20.9586 35.6785 20.9682L36.4477 20.973C37.6133 20.9826 38.1623 20.6157 38.1711 19.7095L38.2092 15.7486C38.2151 15.3171 38.1358 15.0365 37.8892 14.8831C37.6455 14.7296 37.2492 14.533 36.6973 14.2909L32.5284 12.6102C31.6095 12.2577 30.946 11.9604 30.535 11.7207C30.1239 11.4785 29.8274 11.1692 29.6483 10.7904C29.4692 10.414 29.3812 9.92005 29.387 9.31586L29.434 4.55662C29.4604 1.90008 31.2366 0.586198 34.7626 0.612572L37.5222 0.63415C41.0511 0.660524 42.8009 2.00078 42.7745 4.65732L42.7568 6.48669L38.3032 6.44593Z" fill="#E38506"/>
<path d="M21.246 14.8974L18.4188 23.6655H14.5493L18.5068 12.0059L14.5464 0.605347H18.6301L21.246 9.11683H21.334L23.944 0.605347H27.8134L24.0732 12.0059L27.7283 23.6655H23.6827L21.334 14.8974H21.246Z" fill="#FAFAFF"/>
<path d="M13.2341 3.48247H5.16638V10.2125H10.6916L10.6887 13.1496H5.16638V23.6679H0.753815V0.605347H12.2564L13.2341 3.48247Z" fill="#FAFAFF"/>
</g>
<defs>
<clipPath id="clip0_415_240">
<rect width="120" height="24" fill="white" transform="translate(0.302307 0.242432)"/>
</clipPath>
</defs>
</svg>
