<svg width="566" height="140" viewBox="0 0 566 140" fill="none" xmlns="http://www.w3.org/2000/svg">
<path d="M5.50426 106V33.2727H55.1491V47.5483H23.0824V62.4631H51.9886V76.7741H23.0824V106H5.50426ZM79.4936 107.03C73.7881 107.03 68.8639 105.905 64.7209 103.656C60.6016 101.384 57.4292 98.152 55.2038 93.9616C53.0021 89.7476 51.9013 84.7405 51.9013 78.9403C51.9013 73.3059 53.014 68.3816 55.2393 64.1676C57.4647 59.9299 60.6016 56.6392 64.6499 54.2955C68.6982 51.928 73.4685 50.7443 78.9609 50.7443C82.8435 50.7443 86.3947 51.348 89.6143 52.5554C92.834 53.7628 95.6158 55.5502 97.9595 57.9176C100.303 60.285 102.126 63.2088 103.428 66.6889C104.73 70.1454 105.381 74.1108 105.381 78.5852V82.9176H57.9737V72.8324H89.2237C89.2 70.9858 88.7621 69.3404 87.9098 67.8963C87.0575 66.4522 85.8857 65.3277 84.3942 64.5227C82.9264 63.6941 81.2337 63.2798 79.3161 63.2798C77.3748 63.2798 75.6347 63.7178 74.0959 64.5938C72.5571 65.446 71.3378 66.6179 70.4382 68.1094C69.5386 69.5772 69.0651 71.2462 69.0178 73.1165V83.3793C69.0178 85.6046 69.4557 87.5578 70.3317 89.2386C71.2076 90.8958 72.4505 92.1861 74.0604 93.1094C75.6702 94.0327 77.5878 94.4943 79.8132 94.4943C81.352 94.4943 82.7488 94.2812 84.0036 93.8551C85.2583 93.429 86.3355 92.8016 87.2351 91.973C88.1347 91.1444 88.8094 90.1264 89.2592 88.919L105.204 89.3807C104.541 92.9555 103.085 96.0687 100.836 98.7202C98.6106 101.348 95.6868 103.396 92.0646 104.864C88.4425 106.308 84.2521 107.03 79.4936 107.03ZM109.25 106V51.4545H126.118V61.3977H126.686C127.681 57.7992 129.302 55.1241 131.551 53.3722C133.801 51.5966 136.417 50.7088 139.4 50.7088C140.204 50.7088 141.033 50.768 141.885 50.8864C142.738 50.9811 143.531 51.1349 144.265 51.348V66.4403C143.436 66.1562 142.347 65.9313 140.998 65.7656C139.672 65.5999 138.488 65.517 137.446 65.517C135.387 65.517 133.528 65.9787 131.871 66.902C130.238 67.8016 128.947 69.0682 128 70.7017C127.077 72.3116 126.615 74.2055 126.615 76.3835V106H109.25ZM162.825 106V33.2727H193.151C198.596 33.2727 203.154 34.0421 206.823 35.581C210.516 37.1198 213.286 39.2741 215.133 42.044C217.003 44.8139 217.938 48.0218 217.938 51.6676C217.938 54.4375 217.358 56.9115 216.198 59.0895C215.038 61.2438 213.44 63.0312 211.404 64.4517C209.368 65.8722 207.013 66.8665 204.337 67.4347V68.1449C207.273 68.2869 209.984 69.08 212.469 70.5241C214.979 71.9683 216.991 73.9806 218.506 76.5611C220.022 79.1179 220.779 82.1482 220.779 85.652C220.779 89.5582 219.785 93.0502 217.796 96.1278C215.808 99.1818 212.931 101.597 209.167 103.372C205.403 105.124 200.834 106 195.46 106H162.825ZM180.403 91.831H191.269C195.081 91.831 197.886 91.1089 199.685 89.6648C201.508 88.2206 202.42 86.2083 202.42 83.6278C202.42 81.7576 201.982 80.1477 201.106 78.7983C200.23 77.4252 198.987 76.3717 197.377 75.6378C195.767 74.8802 193.838 74.5014 191.589 74.5014H180.403V91.831ZM180.403 63.1733H190.133C192.05 63.1733 193.755 62.8537 195.246 62.2145C196.738 61.5753 197.898 60.652 198.727 59.4446C199.579 58.2372 200.005 56.7812 200.005 55.0767C200.005 52.6383 199.141 50.7206 197.413 49.3239C195.684 47.9271 193.353 47.2287 190.417 47.2287H180.403V63.1733ZM251.728 107.03C246.022 107.03 241.098 105.905 236.955 103.656C232.836 101.384 229.664 98.152 227.438 93.9616C225.237 89.7476 224.136 84.7405 224.136 78.9403C224.136 73.3059 225.248 68.3816 227.474 64.1676C229.699 59.9299 232.836 56.6392 236.884 54.2955C240.933 51.928 245.703 50.7443 251.195 50.7443C255.078 50.7443 258.629 51.348 261.849 52.5554C265.068 53.7628 267.85 55.5502 270.194 57.9176C272.538 60.285 274.361 63.2088 275.663 66.6889C276.965 70.1454 277.616 74.1108 277.616 78.5852V82.9176H230.208V72.8324H261.458C261.434 70.9858 260.996 69.3404 260.144 67.8963C259.292 66.4522 258.12 65.3277 256.629 64.5227C255.161 63.6941 253.468 63.2798 251.55 63.2798C249.609 63.2798 247.869 63.7178 246.33 64.5938C244.791 65.446 243.572 66.6179 242.673 68.1094C241.773 69.5772 241.299 71.2462 241.252 73.1165V83.3793C241.252 85.6046 241.69 87.5578 242.566 89.2386C243.442 90.8958 244.685 92.1861 246.295 93.1094C247.905 94.0327 249.822 94.4943 252.048 94.4943C253.586 94.4943 254.983 94.2812 256.238 93.8551C257.493 93.429 258.57 92.8016 259.469 91.973C260.369 91.1444 261.044 90.1264 261.494 88.919L277.438 89.3807C276.775 92.9555 275.319 96.0687 273.07 98.7202C270.845 101.348 267.921 103.396 264.299 104.864C260.677 106.308 256.487 107.03 251.728 107.03ZM298.85 74.892V106H281.485V51.4545H297.998V61.4688H298.601C299.809 58.1307 301.868 55.5147 304.78 53.6207C307.692 51.7031 311.16 50.7443 315.185 50.7443C319.02 50.7443 322.346 51.6084 325.164 53.3366C328.005 55.0412 330.206 57.4323 331.769 60.5099C333.355 63.5639 334.136 67.1387 334.113 71.2344V106H316.748V74.6435C316.771 71.6132 316.002 69.2457 314.439 67.5412C312.9 65.8366 310.758 64.9844 308.012 64.9844C306.189 64.9844 304.579 65.3868 303.182 66.1918C301.809 66.973 300.744 68.0975 299.986 69.5653C299.252 71.0331 298.873 72.8087 298.85 74.892ZM359.786 106.781C355.761 106.781 352.103 105.74 348.812 103.656C345.522 101.573 342.894 98.4479 340.929 94.2812C338.964 90.1146 337.982 84.9418 337.982 78.7628C337.982 72.3471 339 67.0677 341.036 62.9247C343.071 58.7817 345.735 55.7159 349.026 53.7273C352.34 51.7386 355.903 50.7443 359.714 50.7443C362.579 50.7443 365.029 51.2415 367.065 52.2358C369.101 53.2064 370.782 54.4612 372.108 56C373.434 57.5388 374.44 59.1368 375.126 60.794H375.482V33.2727H392.847V106H375.659V97.1577H375.126C374.393 98.8385 373.351 100.413 372.001 101.881C370.652 103.348 368.959 104.532 366.923 105.432C364.911 106.331 362.532 106.781 359.786 106.781ZM365.822 93.2514C367.929 93.2514 369.729 92.6596 371.22 91.4759C372.712 90.2685 373.86 88.5758 374.665 86.3977C375.47 84.2197 375.872 81.6629 375.872 78.7273C375.872 75.7443 375.47 73.1757 374.665 71.0213C373.884 68.867 372.735 67.2098 371.22 66.0497C369.729 64.8897 367.929 64.3097 365.822 64.3097C363.668 64.3097 361.845 64.9015 360.354 66.0852C358.862 67.2689 357.726 68.938 356.945 71.0923C356.187 73.2467 355.808 75.7917 355.808 78.7273C355.808 81.6629 356.199 84.2197 356.98 86.3977C357.761 88.5758 358.886 90.2685 360.354 91.4759C361.845 92.6596 363.668 93.2514 365.822 93.2514ZM414.205 106.923C410.725 106.923 407.635 106.343 404.936 105.183C402.261 104 400.142 102.224 398.58 99.8565C397.041 97.4654 396.272 94.4706 396.272 90.8722C396.272 87.8419 396.804 85.285 397.87 83.2017C398.935 81.1184 400.403 79.4257 402.273 78.1236C404.143 76.8215 406.298 75.839 408.736 75.1761C411.175 74.4896 413.779 74.0279 416.549 73.7912C419.65 73.5071 422.148 73.2112 424.042 72.9034C425.935 72.572 427.309 72.1103 428.161 71.5185C429.037 70.9029 429.475 70.0388 429.475 68.9261V68.7486C429.475 66.9257 428.847 65.517 427.593 64.5227C426.338 63.5284 424.645 63.0312 422.515 63.0312C420.218 63.0312 418.372 63.5284 416.975 64.5227C415.578 65.517 414.69 66.8902 414.311 68.642L398.296 68.0739C398.769 64.7595 399.989 61.8002 401.953 59.196C403.942 56.5682 406.665 54.5085 410.121 53.017C413.601 51.5019 417.78 50.7443 422.657 50.7443C426.137 50.7443 429.345 51.1586 432.28 51.9872C435.216 52.7921 437.773 53.9759 439.951 55.5384C442.129 57.0772 443.81 58.9711 444.993 61.2202C446.201 63.4692 446.804 66.0379 446.804 68.9261V106H430.469V98.4006H430.043C429.072 100.247 427.829 101.81 426.314 103.088C424.823 104.366 423.059 105.325 421.023 105.964C419.011 106.604 416.738 106.923 414.205 106.923ZM419.567 95.5597C421.437 95.5597 423.118 95.1809 424.61 94.4233C426.125 93.6657 427.332 92.6241 428.232 91.2983C429.132 89.9489 429.581 88.3864 429.581 86.6108V81.4261C429.084 81.6866 428.48 81.9233 427.77 82.1364C427.084 82.3494 426.326 82.5507 425.498 82.7401C424.669 82.9295 423.817 83.0952 422.941 83.2372C422.065 83.3793 421.224 83.5095 420.419 83.6278C418.786 83.8883 417.389 84.2907 416.229 84.8352C415.093 85.3797 414.217 86.09 413.601 86.9659C413.009 87.8182 412.713 88.8362 412.713 90.0199C412.713 91.8191 413.353 93.1922 414.631 94.1392C415.933 95.0862 417.578 95.5597 419.567 95.5597ZM469.787 33.2727V106H452.422V33.2727H469.787ZM491.217 106.923C487.737 106.923 484.647 106.343 481.948 105.183C479.273 104 477.154 102.224 475.592 99.8565C474.053 97.4654 473.283 94.4706 473.283 90.8722C473.283 87.8419 473.816 85.285 474.881 83.2017C475.947 81.1184 477.415 79.4257 479.285 78.1236C481.155 76.8215 483.309 75.839 485.748 75.1761C488.186 74.4896 490.79 74.0279 493.56 73.7912C496.662 73.5071 499.159 73.2112 501.053 72.9034C502.947 72.572 504.32 72.1103 505.173 71.5185C506.049 70.9029 506.487 70.0388 506.487 68.9261V68.7486C506.487 66.9257 505.859 65.517 504.604 64.5227C503.35 63.5284 501.657 63.0312 499.526 63.0312C497.23 63.0312 495.383 63.5284 493.987 64.5227C492.59 65.517 491.702 66.8902 491.323 68.642L475.308 68.0739C475.781 64.7595 477 61.8002 478.965 59.196C480.954 56.5682 483.676 54.5085 487.133 53.017C490.613 51.5019 494.791 50.7443 499.668 50.7443C503.148 50.7443 506.356 51.1586 509.292 51.9872C512.228 52.7921 514.784 53.9759 516.962 55.5384C519.14 57.0772 520.821 58.9711 522.005 61.2202C523.212 63.4692 523.816 66.0379 523.816 68.9261V106H507.481V98.4006H507.055C506.084 100.247 504.841 101.81 503.326 103.088C501.835 104.366 500.071 105.325 498.035 105.964C496.022 106.604 493.75 106.923 491.217 106.923ZM496.579 95.5597C498.449 95.5597 500.13 95.1809 501.621 94.4233C503.137 93.6657 504.344 92.6241 505.244 91.2983C506.143 89.9489 506.593 88.3864 506.593 86.6108V81.4261C506.096 81.6866 505.492 81.9233 504.782 82.1364C504.095 82.3494 503.338 82.5507 502.509 82.7401C501.681 82.9295 500.828 83.0952 499.952 83.2372C499.076 83.3793 498.236 83.5095 497.431 83.6278C495.798 83.8883 494.401 84.2907 493.241 84.8352C492.104 85.3797 491.228 86.09 490.613 86.9659C490.021 87.8182 489.725 88.8362 489.725 90.0199C489.725 91.8191 490.364 93.1922 491.643 94.1392C492.945 95.0862 494.59 95.5597 496.579 95.5597ZM539.2 107.03C536.643 107.03 534.453 106.13 532.63 104.331C530.831 102.532 529.943 100.354 529.967 97.7969C529.943 95.2874 530.831 93.1449 532.63 91.3693C534.453 89.5701 536.643 88.6705 539.2 88.6705C541.614 88.6705 543.745 89.5701 545.592 91.3693C547.462 93.1449 548.409 95.2874 548.433 97.7969C548.409 99.5014 547.959 101.052 547.083 102.449C546.231 103.846 545.106 104.958 543.71 105.787C542.336 106.616 540.833 107.03 539.2 107.03Z" fill="#18191D"/>
</svg>
