<svg width="121" height="33" viewBox="0 0 121 33" fill="none" xmlns="http://www.w3.org/2000/svg">
<g clip-path="url(#clip0_415_252)">
<path d="M12.9449 9.72033L11.5312 13.5436H7.95693V24.2344C7.95693 25.5918 8.1256 26.4994 8.45492 26.9572C8.78424 27.4151 9.42681 27.64 10.3666 27.64C10.7521 27.64 11.4188 27.5034 12.3585 27.2223L13.0654 30.5155C11.5152 31.15 10.0051 31.4633 8.53524 31.4633C7.12159 31.4633 5.89267 31.1821 4.85653 30.6119C3.82038 30.0416 3.12962 29.2946 2.8003 28.3468C2.55131 27.656 2.42279 26.5637 2.42279 25.0697V13.5436H0.302307V9.72033H2.42279C2.42279 7.42314 2.49508 5.74442 2.63163 4.69222L8.28624 3.27856C8.06135 5.35888 7.95693 7.50346 7.95693 9.72033H12.9449Z" fill="#D2312E"/>
<path d="M17.8124 0.403076C18.7522 0.403076 19.5554 0.732392 20.206 1.39906C20.8566 2.06572 21.1859 2.885 21.1859 3.84886C21.1859 4.78862 20.8566 5.59986 20.1899 6.28259C19.5233 6.96532 18.704 7.30267 17.7401 7.30267C16.8004 7.30267 15.9972 6.96532 15.3305 6.28259C14.6638 5.59986 14.3345 4.79665 14.3345 3.84886C14.3345 2.9091 14.6719 2.09785 15.3546 1.41512C16.0132 0.740425 16.8405 0.403076 17.8124 0.403076ZM14.9369 10.0898L20.5112 9.21432V31.0055H14.9369V10.0898Z" fill="#D2312E"/>
<path d="M38.5596 25.3106L40.7041 28.6359C38.2945 30.6038 35.6198 31.5917 32.68 31.5917C29.6278 31.5917 27.1941 30.5957 25.3628 28.5957C23.5314 26.5957 22.6158 23.921 22.6158 20.5716C22.6158 16.909 23.4913 14.1138 25.2343 12.17C26.9772 10.2263 29.2262 9.26245 31.9732 9.26245C34.6077 9.26245 36.6559 10.0094 38.1258 11.5114C40.0134 13.4552 40.9531 16.5556 40.9531 20.8287V22.1138H28.7282V22.2825C28.7282 25.7202 30.2142 27.4391 33.1861 27.4391C35.0897 27.4311 36.8808 26.7243 38.5596 25.3106ZM28.7282 18.0335H35.17V17.7845C35.17 16.3468 34.9451 15.2785 34.5033 14.5797C33.9732 13.7443 33.162 13.3347 32.0535 13.3347C29.8367 13.3347 28.7282 14.8769 28.7282 17.9532V18.0335Z" fill="#D2312E"/>
<path d="M42.0132 10.5879L46.961 9.17432C47.4911 10.09 47.7482 10.9735 47.7482 11.8329C48.2462 11.4715 49.0654 10.9494 50.198 10.2506C51.3305 9.64019 52.6076 9.33497 54.0213 9.33497C55.21 9.33497 56.2783 9.61609 57.2261 10.1864C58.1658 10.7566 58.8084 11.4956 59.1377 12.4112C59.4108 13.1582 59.5554 14.1703 59.5554 15.4474V30.9976H54.0213V17.1984C54.0213 16.1462 53.9409 15.4313 53.7723 15.0377C53.5233 14.4032 52.9851 14.0819 52.1658 14.0819C51.0092 14.0819 49.7321 14.7165 48.3265 15.9936V31.0136H42.7522V15.5839C42.7602 13.6642 42.5112 12.0016 42.0132 10.5879Z" fill="#D2312E"/>
<path d="M79.531 1.1099V23.2303C79.531 27.2464 79.796 29.8408 80.3181 31.0055H75.3302C75.1936 30.7324 75.0812 30.3147 75.0009 29.7605C73.6434 30.9492 72.0049 31.5516 70.0933 31.5516C67.4025 31.5516 65.2659 30.5717 63.6676 28.6199C62.0692 26.6681 61.274 24.0416 61.274 20.7404C61.274 17.4151 62.1174 14.7083 63.8121 12.6279C65.4989 10.5476 67.6916 9.51151 70.3824 9.51151C71.9085 9.51151 73.1695 9.91311 74.1655 10.7163C74.0531 10.1059 73.9969 9.05367 73.9969 7.5597V0.242432L79.531 1.1099ZM74.0852 15.3267C73.0571 14.4191 72.0451 13.9613 71.0491 13.9613C68.6635 13.9613 67.4748 16.2263 67.4748 20.7565C67.4748 23.0215 67.7479 24.5958 68.3101 25.4793C68.8643 26.3629 69.8764 26.8046 71.3463 26.8046C72.4306 26.8046 73.3382 26.3468 74.0932 25.4392V15.3267H74.0852Z" fill="#D2312E"/>
<path d="M96.9687 25.3106L99.1133 28.6359C96.7037 30.6038 94.029 31.5917 91.0892 31.5917C88.037 31.5917 85.6033 30.5957 83.7719 28.5957C81.9406 26.5957 81.025 23.921 81.025 20.5716C81.025 16.909 81.9005 14.1138 83.6434 12.17C85.3864 10.2263 87.6354 9.26245 90.3824 9.26245C93.0169 9.26245 95.0651 10.0094 96.535 11.5114C98.4225 13.4552 99.3623 16.5556 99.3623 20.8287V22.1138H87.1374V22.2825C87.1374 25.7202 88.6233 27.4391 91.5952 27.4391C93.4988 27.4311 95.29 26.7243 96.9687 25.3106ZM87.1454 18.0335H93.5872V17.7845C93.5872 16.3468 93.3623 15.2785 92.9205 14.5797C92.3904 13.7443 91.5792 13.3347 90.4707 13.3347C88.2539 13.3347 87.1454 14.8769 87.1454 17.9532V18.0335Z" fill="#D2312E"/>
<path d="M110.615 9.30273C113.635 9.30273 116.045 10.371 117.852 12.5075C119.491 14.4192 120.302 17.0135 120.302 20.2826C120.302 23.7766 119.418 26.5155 117.659 28.4995C115.9 30.4834 113.547 31.4714 110.607 31.4714C107.724 31.4714 105.41 30.4754 103.659 28.4754C101.916 26.4754 101.041 23.8007 101.041 20.4513C101.041 17.0939 101.916 14.4031 103.659 12.3629C105.418 10.3228 107.732 9.30273 110.615 9.30273ZM110.695 13.4151C109.282 13.4151 108.326 14.138 107.828 15.5758C107.442 16.7164 107.25 18.2907 107.25 20.3147C107.25 22.7806 107.491 24.5878 107.981 25.7204C108.462 26.8609 109.402 27.4232 110.784 27.4232C113.081 27.4232 114.238 25.0296 114.238 20.2264C114.238 17.3991 113.86 15.5035 113.113 14.5316C112.527 13.7927 111.724 13.4151 110.695 13.4151Z" fill="#D2312E"/>
</g>
<defs>
<clipPath id="clip0_415_252">
<rect width="120" height="32" fill="white" transform="translate(0.302307 0.242432)"/>
</clipPath>
</defs>
</svg>
