<svg width="55" height="55" viewBox="0 0 55 55" fill="none" xmlns="http://www.w3.org/2000/svg">
<path d="M53.8632 25.45L30.7 3.57368C29.9895 2.90263 28.9947 2.5 28 2.5C27.0053 2.5 26.0105 2.90263 25.3 3.57368L20.3263 8.27105L26.1526 13.7737C26.7211 13.5053 27.2895 13.3711 28 13.3711C30.4158 13.3711 32.2632 15.1158 32.2632 17.3974C32.2632 18.0684 32.1211 18.6053 31.8368 19.1421L37.5211 24.5105C38.0895 24.2421 38.6579 24.1079 39.3684 24.1079C41.7842 24.1079 43.6316 25.8526 43.6316 28.1342C43.6316 30.4158 41.7842 32.1605 39.3684 32.1605C36.9526 32.1605 35.1053 30.4158 35.1053 28.1342C35.1053 27.4632 35.2474 26.9263 35.5316 26.3895L29.8474 21.0211C29.7053 21.0211 29.5632 21.1553 29.4211 21.1553V35.1132C31.1263 35.65 32.2632 37.1263 32.2632 38.871C32.2632 41.1526 30.4158 42.8974 28 42.8974C25.5842 42.8974 23.7368 41.1526 23.7368 38.871C23.7368 37.1263 24.8737 35.65 26.5789 35.1132V21.0211C24.8737 20.4842 23.7368 19.0079 23.7368 17.2632C23.7368 16.5921 23.8789 16.0553 24.1632 15.5184L18.3368 10.0158L2.13684 25.45C1.42632 26.1211 1 27.0605 1 28C1 28.9395 1.42632 29.8789 2.13684 30.55L25.3 52.4263C26.0105 53.0974 27.0053 53.5 28 53.5C28.9947 53.5 29.9895 53.0974 30.7 52.4263L53.8632 30.55C54.5737 29.8789 55 28.9395 55 28C55 27.0605 54.5737 26.1211 53.8632 25.45Z" fill="#F4511E"/>
</svg>
