<svg width="45" height="55" viewBox="0 0 45 55" fill="none" xmlns="http://www.w3.org/2000/svg">
<g clip-path="url(#clip0_415_165)">
<path fill-rule="evenodd" clip-rule="evenodd" d="M1.90049 50.6813L0.180041 5.28027C0.125864 3.78091 1.28868 2.51202 2.79903 2.42036L33.3336 0.528156L35.6659 1.30992L38.6985 0.195547L41.7588 0.00567201C43.2956 -0.0912297 44.6209 1.06504 44.72 2.58797C44.724 2.6469 44.7253 2.70713 44.7253 2.76737V52.2357C44.724 53.7639 43.4726 55.0013 41.9306 55C41.8896 55 41.8486 54.9987 41.809 54.9974L4.5644 53.3396C3.11352 53.2754 1.95598 52.1204 1.90049 50.6813Z" fill="#FF4081"/>
<path fill-rule="evenodd" clip-rule="evenodd" d="M38.6959 0.195557L33.3351 0.525546L33.0747 6.75999C33.0655 6.98784 33.2439 7.17903 33.4738 7.1895C33.5703 7.19343 33.6641 7.16462 33.7407 7.107L36.1826 5.2698L38.2467 6.88177C38.4264 7.0232 38.6893 6.99308 38.8307 6.81499C38.8915 6.73773 38.9232 6.64214 38.9206 6.54393L38.6986 0.196866L38.6959 0.195557ZM34.523 21.0674C33.5438 21.823 26.2286 22.3376 26.2286 21.2625C26.3846 17.1573 24.5307 16.9779 23.4987 16.9779C22.5222 16.9779 20.8731 17.2699 20.8731 19.4698C20.8731 21.7104 23.2819 22.9753 26.1097 24.4603C30.1254 26.5698 34.9894 29.1246 34.9894 35.5477C34.9894 41.7075 29.9391 45.1069 23.5013 45.1069C16.856 45.1069 11.0472 42.4421 11.7026 33.205C11.9603 32.122 20.4106 32.38 20.4106 33.205C20.3049 37.0169 21.1823 38.1378 23.3969 38.1378C25.0975 38.1378 25.8692 37.2081 25.8692 35.6459C25.8692 33.2783 23.3612 31.8811 20.4727 30.2757C16.5627 28.1006 11.9616 25.5406 11.9616 19.6636C11.9616 13.8011 16.0302 9.89097 23.2938 9.89097C30.5575 9.89097 34.523 13.7422 34.523 21.0674Z" fill="#FAFAFF"/>
</g>
<defs>
<clipPath id="clip0_415_165">
<rect width="45" height="55" fill="white"/>
</clipPath>
</defs>
</svg>
