<svg width="57" height="55" viewBox="0 0 57 55" fill="none" xmlns="http://www.w3.org/2000/svg">
<g clip-path="url(#clip0_415_147)">
<path d="M53.875 0H3.125C1.67525 0 0.5 1.15427 0.5 2.57812V52.4219C0.5 53.8457 1.67525 55 3.125 55H53.875C55.3247 55 56.5 53.8457 56.5 52.4219V2.57812C56.5 1.15427 55.3247 0 53.875 0Z" fill="#3178C6"/>
<path fill-rule="evenodd" clip-rule="evenodd" d="M32.9897 42.7402V48.767C33.9839 49.2688 35.1596 49.6457 36.5171 49.8966C37.8745 50.148 39.3052 50.2734 40.8092 50.2734C42.2749 50.2734 43.6673 50.1355 44.9863 49.8592C46.3058 49.5829 47.4621 49.1279 48.4566 48.4937C49.4506 47.8595 50.2376 47.031 50.8178 46.0075C51.3974 44.9844 51.6875 43.7194 51.6875 42.2128C51.6875 41.1205 51.5217 40.1631 51.1905 39.3407C50.8589 38.5183 50.3811 37.787 49.7564 37.1467C49.1321 36.5063 48.3831 35.9319 47.5103 35.4234C46.637 34.9149 45.6526 34.4347 44.5562 33.9827C43.7533 33.6563 43.0332 33.3392 42.396 33.0316C41.7587 32.724 41.217 32.4101 40.7709 32.09C40.3248 31.7698 39.9807 31.4308 39.7385 31.0729C39.4963 30.7151 39.3752 30.3102 39.3752 29.8582C39.3752 29.4439 39.4836 29.0703 39.7003 28.7376C39.917 28.4049 40.2229 28.1193 40.618 27.8807C41.0131 27.6422 41.4974 27.457 42.0709 27.3252C42.6445 27.1933 43.2818 27.1274 43.9828 27.1274C44.4928 27.1274 45.0309 27.1651 45.5984 27.2404C46.1654 27.3157 46.7359 27.4319 47.3094 27.5888C47.883 27.7457 48.4404 27.9435 48.9824 28.182C49.5241 28.4206 50.0241 28.6968 50.4831 29.0107V23.3796C49.5525 23.028 48.5362 22.7675 47.4337 22.598C46.3312 22.4285 45.0664 22.3438 43.6386 22.3438C42.1857 22.3438 40.8091 22.4975 39.5091 22.8051C38.209 23.1128 37.0651 23.593 36.0773 24.2459C35.0895 24.8988 34.3089 25.7306 33.7353 26.7413C33.1618 27.752 32.875 28.9605 32.875 30.3667C32.875 32.1622 33.4007 33.6939 34.4523 34.962C35.5038 36.2301 37.1002 37.3036 39.2414 38.1825C40.0826 38.5215 40.8665 38.8542 41.593 39.1807C42.3195 39.5071 42.9472 39.8461 43.4762 40.1977C44.0051 40.5492 44.4224 40.9322 44.7282 41.3465C45.0344 41.7608 45.1871 42.2316 45.1871 42.759C45.1871 43.1484 45.0917 43.5093 44.9006 43.8419C44.7094 44.1745 44.4193 44.4632 44.0306 44.7081C43.6418 44.953 43.1575 45.1447 42.5776 45.2826C41.9977 45.4205 41.319 45.4897 40.5415 45.4897C39.2159 45.4897 37.9031 45.2607 36.6031 44.8022C35.303 44.3442 34.0986 43.6567 32.9897 42.7402ZM22.6824 27.7382H30.6875V22.7734H8.375V27.7382H16.341V49.8438H22.6824V27.7382Z" fill="#FAFAFF"/>
</g>
<defs>
<clipPath id="clip0_415_147">
<rect width="56" height="55" fill="white" transform="translate(0.5)"/>
</clipPath>
</defs>
</svg>
