<svg width="57" height="37" viewBox="0 0 57 37" fill="none" xmlns="http://www.w3.org/2000/svg">
<g clip-path="url(#clip0_415_188)">
<mask id="mask0_415_188" style="mask-type:luminance" maskUnits="userSpaceOnUse" x="0" y="0" width="57" height="37">
<path d="M0.5 0H56.5V36.3273H0.5V0Z" fill="white"/>
</mask>
<g mask="url(#mask0_415_188)">
<path fill-rule="evenodd" clip-rule="evenodd" d="M28.5 0C21.0333 0 16.3667 4.03636 14.5 12.1091C17.3 8.07273 20.5667 6.55909 24.3 7.56818C26.4301 8.14336 27.9524 9.81509 29.6376 11.664C32.3827 14.6767 35.5601 18.1636 42.5 18.1636C49.9667 18.1636 54.6333 14.1273 56.5 6.05455C53.7 10.0909 50.4333 11.6045 46.7 10.5955C44.5699 10.0203 43.0476 8.34855 41.3624 6.49967C38.6173 3.48697 35.4399 0 28.5 0ZM14.5 18.1636C7.03333 18.1636 2.36667 22.2 0.5 30.2727C3.3 26.2364 6.56667 24.7227 10.3 25.7318C12.4301 26.3081 13.9524 27.9787 15.6376 29.8276C18.3827 32.8403 21.5601 36.3273 28.5 36.3273C35.9667 36.3273 40.6333 32.2909 42.5 24.2182C39.7 28.2545 36.4333 29.7682 32.7 28.7591C30.5699 28.1839 29.0476 26.5122 27.3624 24.6633C24.6173 21.6506 21.4399 18.1636 14.5 18.1636Z" fill="#38BDF8"/>
</g>
</g>
<defs>
<clipPath id="clip0_415_188">
<rect width="56" height="37" fill="white" transform="translate(0.5)"/>
</clipPath>
</defs>
</svg>
