<svg width="140" height="140" viewBox="0 0 140 140" fill="none" xmlns="http://www.w3.org/2000/svg">
<path d="M39 136.129V4H129.353V29.9355H70.9921V57.0323H123.601V83.0323H70.9921V136.129H39Z" fill="url(#paint0_linear_131_24)"/>
<path d="M123.196 138C118.543 138 114.557 136.366 111.239 133.097C107.965 129.828 106.349 125.871 106.392 121.226C106.349 116.667 107.965 112.774 111.239 109.548C114.557 106.28 118.543 104.645 123.196 104.645C127.591 104.645 131.469 106.28 134.83 109.548C138.233 112.774 139.957 116.667 140 121.226C139.957 124.323 139.138 127.14 137.544 129.677C135.993 132.215 133.946 134.237 131.404 135.742C128.905 137.247 126.169 138 123.196 138Z" fill="url(#paint1_linear_131_24)"/>
<defs>
<linearGradient id="paint0_linear_131_24" x1="112.5" y1="102.5" x2="46" y2="8.5" gradientUnits="userSpaceOnUse">
<stop stop-color="#FF1FB1"/>
<stop offset="1" stop-color="#79FBFF"/>
</linearGradient>
<linearGradient id="paint1_linear_131_24" x1="112.5" y1="102.5" x2="46" y2="8.5" gradientUnits="userSpaceOnUse">
<stop stop-color="#FF1FB1"/>
<stop offset="1" stop-color="#79FBFF"/>
</linearGradient>
</defs>
</svg>
