<svg width="24" height="24" viewBox="0 0 24 24" fill="none" xmlns="http://www.w3.org/2000/svg">
	<path
		d="M12 18.6667C15.6819 18.6667 18.6667 15.6819 18.6667 12C18.6667 8.31814 15.6819 5.33337 12 5.33337C8.3181 5.33337 5.33333 8.31814 5.33333 12C5.33333 15.6819 8.3181 18.6667 12 18.6667Z"
		stroke="currentColor" stroke-width="2" stroke-linecap="round" stroke-linejoin="round" />
	<path
		d="M14 10.236C13.6417 9.82984 13.1682 9.54238 12.6425 9.4119C12.1168 9.28143 11.5639 9.31412 11.0572 9.50564C10.5506 9.69716 10.1143 10.0384 9.80634 10.484C9.49842 10.9296 9.33348 11.4584 9.33348 12C9.33348 12.5417 9.49842 13.0705 9.80634 13.5161C10.1143 13.9617 10.5506 14.3029 11.0572 14.4944C11.5639 14.686 12.1168 14.7187 12.6425 14.5882C13.1682 14.4577 13.6417 14.1702 14 13.764"
		stroke="currentColor" stroke-width="2" stroke-linecap="round" stroke-linejoin="round" />
</svg>