<svg width="101" height="45" viewBox="0 0 101 45" fill="none" xmlns="http://www.w3.org/2000/svg">
	<path
		d="M19.6459 11.0325L21.6411 15.75L23.8613 21.0152L26.0815 26.1434L28.1191 30.8153L28.2561 31.0892V31.3174C27.8648 31.2554 27.5388 31.2098 27.2845 31.1804C27.027 31.1511 26.6162 31.1348 26.0424 31.1348C25.6512 31.1348 25.2599 31.1348 24.8687 31.1348C24.4775 31.2261 24.145 31.288 23.8744 31.3174L18.945 19.2286H18.1364H16.0923H8.17982C6.68013 22.3844 5.60427 24.797 4.95549 26.4695C4.30672 28.1419 3.76227 29.7557 3.33192 31.3174C2.69618 31.1935 2.16803 31.1348 1.74747 31.1348C1.35299 31.1348 0.857438 31.1967 0.254303 31.3174V30.9979L6.86922 16.3922L14.1623 0H15.0686L19.6459 11.0325ZM9.19048 17.3996H11.2835H15.8967H17.905H18.2049L13.52 5.91398L8.93292 17.354L9.19048 17.3996Z"
		fill="currentColor" />
	<path
		d="M30.8805 0.446533C31.425 0.508477 31.8814 0.554119 32.2433 0.583461C32.6084 0.612803 33.0616 0.629104 33.606 0.629104C34.0592 0.629104 34.5287 0.629104 35.0144 0.629104C35.347 0.537818 35.6045 0.475875 35.7871 0.446533C36.387 1.70171 37.4563 3.6187 38.9886 6.20076C40.5209 8.78283 41.7532 10.7455 42.6857 12.0854L42.9139 11.7366L45.7828 7.57982L48.1497 3.99036C48.4823 3.40678 48.7887 2.87537 49.0593 2.39287C49.3332 1.91036 49.7407 1.26158 50.2884 0.446533C50.7677 0.57042 51.2339 0.629104 51.6838 0.629104C52.1924 0.629104 52.7955 0.56716 53.4867 0.446533C50.2395 4.86409 47.1521 9.60766 44.2212 14.6773C44.7983 15.8803 45.7078 17.4973 46.95 19.5252C48.1921 21.5562 48.8996 22.7038 49.0724 22.9744L54.0963 31.3172C53.6399 31.2553 53.2291 31.2097 52.8672 31.1803C52.5021 31.151 52.062 31.1347 51.5468 31.1347C51.211 31.1347 50.9339 31.1347 50.7057 31.1347C50.4775 31.1347 49.9559 31.1966 49.1343 31.3172L48.9126 30.9325C47.4064 28.3342 45.9132 25.7228 44.4364 23.0951L41.9554 19.0687L41.6457 18.6416C40.4752 20.0989 38.9788 22.2181 37.1596 25.0023C35.3405 27.7865 34.0918 29.8925 33.4137 31.3205C32.8105 31.1966 32.2824 31.1379 31.8292 31.1379C31.3174 31.1379 30.7436 31.1999 30.1078 31.3205C30.7501 30.1371 31.5097 28.9177 32.3867 27.6593C33.2637 26.4009 34.1244 25.1653 34.9753 23.9525L37.4302 20.1772L40.1036 16.0367L39.8852 15.6227C38.9527 13.81 37.4139 11.0747 35.272 7.41355C33.1333 3.7491 31.6695 1.42785 30.8805 0.446533Z"
		fill="currentColor" />
	<path
		d="M62.9771 26.838C62.9771 27.9334 62.9966 28.7387 63.0358 29.257C63.0749 29.7721 63.1564 30.4568 63.277 31.3077C62.3087 31.1838 61.5687 31.1251 61.0568 31.1251C60.5743 31.1251 59.8343 31.1871 58.8366 31.3077L59.3811 20.9175L58.9736 0.410889L61.1025 0.502174L68.8063 0.410889C75.3919 0.410889 78.6847 2.99948 78.6847 8.1734C78.6847 11.4629 77.4001 13.7842 74.8344 15.1372C72.2653 16.4934 69.191 17.1683 65.6048 17.1683H62.9151V22.0031L62.9771 26.838ZM74.5638 8.26468C74.5638 5.98255 73.8824 4.37854 72.5164 3.44938C71.1504 2.52023 69.2855 2.05728 66.9219 2.05728C65.921 2.05728 65.2233 2.07358 64.8289 2.10293C64.4344 2.13227 63.8443 2.22681 63.0553 2.38004C62.964 3.33202 62.9184 3.93189 62.9184 4.17967C62.9184 4.42744 62.9184 4.7013 62.9184 5.00775V6.62155V10.8631V15.5642C63.0684 15.5642 63.2901 15.5642 63.5769 15.5642C63.8638 15.5642 64.2518 15.5642 64.7376 15.5642C67.6489 15.5642 70.0158 15.0328 71.835 13.9668C73.6542 12.9072 74.5638 11.0032 74.5638 8.26468Z"
		fill="currentColor" />
	<path
		d="M100.075 0.456543C100.045 0.531527 100.013 0.678236 99.9835 0.893408C99.9541 1.10858 99.9378 1.33027 99.9378 1.55523C99.9378 1.88451 99.9835 2.24965 100.075 2.65391C99.2597 2.73541 98.6403 2.78758 98.2164 2.80714C97.7926 2.8267 97.2351 2.83648 96.5407 2.83648L88.2924 2.65391L88.0675 10.8957V14.0091H89.4368H90.6691C92.8926 14.0091 94.4379 13.9863 95.3051 13.9407C96.1723 13.895 97.4144 13.7972 99.0282 13.644C98.9663 13.9505 98.9206 14.2178 98.8913 14.446C98.862 14.6742 98.8457 15.0198 98.8457 15.4762L98.8913 16.3467C96.7657 16.1022 94.1445 15.9816 91.018 15.9816H88.061V16.4412V25.4459V29.1234L89.7041 29.169C91.8656 29.169 93.8739 29.1234 95.7289 29.0321C97.584 28.9408 99.1065 28.8039 100.293 28.6213C100.231 28.8365 100.195 29.0875 100.179 29.3777C100.163 29.6678 100.156 29.8895 100.156 30.0428C100.156 30.2873 100.202 30.7144 100.293 31.324L92.8078 31.1414L88.061 31.2327L84.0281 31.324C84.24 29.707 84.3443 27.9823 84.3443 26.1501L84.5269 21.0675V15.7957V10.7131L84.2563 0.456543L91.3505 0.639114L100.075 0.456543Z"
		fill="currentColor" />
	<path
		d="M4.21868 44.9906C2.91135 44.9906 1.88113 44.6255 1.12803 43.8985C0.374922 43.1715 0 42.1706 0 40.8958C0 39.5885 0.401003 38.5615 1.19975 37.8084C1.9985 37.0553 3.09392 36.6804 4.48928 36.6804C4.95875 36.6804 5.39235 36.7163 5.78683 36.7913C6.18132 36.8662 6.55298 36.9804 6.89856 37.1368C6.78119 37.427 6.70295 37.7106 6.66382 37.9845L6.58232 38.0073C6.30194 37.7367 5.97266 37.5281 5.601 37.3781C5.22934 37.2281 4.85116 37.1531 4.46646 37.1531C3.4395 37.1531 2.63749 37.4792 2.05718 38.1345C1.47687 38.7898 1.18671 39.7059 1.18671 40.8795C1.18671 41.9913 1.46382 42.8748 2.02132 43.5301C2.57881 44.1854 3.32865 44.5114 4.27737 44.5114C5.2 44.5114 6.05091 44.1854 6.82683 43.5366L6.88552 43.5725L6.72251 44.2734C6.04113 44.7559 5.20652 44.9906 4.21868 44.9906Z"
		fill="currentColor" />
	<path
		d="M19.7958 40.8501C19.7958 42.0303 19.3785 43.0181 18.5439 43.8103C17.7093 44.6058 16.6661 45.0036 15.4142 45.0036C14.0742 45.0036 13.0212 44.6319 12.255 43.8886C11.4889 43.1452 11.1042 42.115 11.1042 40.8012C11.1042 39.5982 11.515 38.6071 12.3333 37.8279C13.1516 37.0487 14.1883 36.6575 15.4402 36.6575C16.8421 36.6575 17.918 37.0161 18.6711 37.7366C19.4209 38.4604 19.7958 39.4971 19.7958 40.8501ZM15.4272 44.6351C16.3759 44.6351 17.1453 44.2863 17.7419 43.5886C18.3385 42.891 18.6352 41.9911 18.6352 40.8827C18.6352 40.0904 18.5439 39.4515 18.3646 38.9657C18.1853 38.4799 17.8463 38.0365 17.3474 37.6355C16.8486 37.2345 16.2129 37.0357 15.437 37.0357C14.5046 37.0357 13.7417 37.3845 13.1451 38.0822C12.5484 38.7799 12.2518 39.6797 12.2518 40.7881C12.2518 41.5804 12.3496 42.2259 12.5452 42.7247C12.7408 43.2235 13.0896 43.6669 13.5917 44.0548C14.0938 44.4428 14.7067 44.6351 15.4272 44.6351Z"
		fill="currentColor" />
	<path
		d="M27.0987 39.0766L28.2528 40.322C29.0678 41.199 29.8894 42.076 30.7142 42.9432V40.4035V39.0994L30.6197 36.8238C30.7762 36.8564 30.9098 36.8727 31.0207 36.8727C31.1054 36.8727 31.1967 36.8727 31.2913 36.8727C31.3532 36.8499 31.4021 36.8336 31.4315 36.8238C31.376 37.2998 31.3304 38.0334 31.2945 39.031C31.2587 40.0286 31.2424 41.0718 31.2424 42.164V43.5039C31.2424 44.2962 31.2424 44.7265 31.2424 44.7982V44.9776H31.0663C31.0044 44.8961 30.9457 44.8243 30.8903 44.7559C30.8348 44.6874 30.6849 44.5146 30.4436 44.2342L29.5731 43.2301L27.4182 40.8469L25.299 38.5843L25.2175 38.4996V38.643V40.9414C25.2175 41.4761 25.2371 42.2292 25.2762 43.1975C25.3153 44.1658 25.3349 44.707 25.3349 44.8211C25.1849 44.7885 25.048 44.7722 24.9241 44.7722C24.7839 44.7722 24.647 44.7885 24.5133 44.8211C24.5753 44.4005 24.6079 44.1592 24.6144 44.0973C24.6209 44.0354 24.6209 43.8039 24.6209 43.4094L24.6666 42.0923L24.7024 40.7034L24.7252 39.3863V38.2224V36.6543H24.9143L27.0987 39.0766Z"
		fill="currentColor" />
	<path
		d="M38.6887 37.1465C38.2811 37.1465 37.9421 37.2769 37.6682 37.5377C37.3944 37.7985 37.2574 38.1311 37.2574 38.5353C37.2574 39.1059 37.5704 39.5655 38.1964 39.9111C38.7767 40.1948 39.3603 40.4784 39.9471 40.7523C40.5828 41.1467 40.8991 41.6814 40.8991 42.3563C40.8991 43.1094 40.635 43.7321 40.1068 44.2309C39.5787 44.7297 38.9104 44.9775 38.1051 44.9775C37.3389 44.9775 36.6836 44.759 36.1425 44.3254C36.1881 44.1591 36.2403 43.9798 36.2957 43.7907C36.3511 43.6017 36.3772 43.4256 36.3772 43.2691H36.4946C36.651 43.6245 36.9021 43.9114 37.2509 44.1298C37.5998 44.3482 37.9747 44.4558 38.3724 44.4558C38.8419 44.4558 39.2299 44.2961 39.5363 43.9798C39.8428 43.6636 39.996 43.2626 39.996 42.7801C39.996 42.2096 39.683 41.7564 39.0571 41.4141C38.4702 41.137 37.8834 40.8566 37.2933 40.5729C36.6576 40.1622 36.3413 39.5884 36.3413 38.8516C36.3413 38.2028 36.5728 37.6779 37.0357 37.2736C37.4987 36.8694 38.1018 36.6672 38.8452 36.6672C39.1973 36.6672 39.5005 36.7064 39.7547 36.7846C40.009 36.8628 40.2862 37.0096 40.5828 37.2247C40.5046 37.3975 40.4394 37.567 40.3905 37.7301C40.3383 37.8931 40.2992 38.0496 40.2666 38.1995H40.1492C40.0384 37.8833 39.8525 37.629 39.5852 37.4334C39.3146 37.241 39.0179 37.1465 38.6887 37.1465Z"
		fill="currentColor" />
	<path
		d="M46.6892 36.8206C46.6435 37.4041 46.6077 38.0464 46.5881 38.7408C46.5685 39.4352 46.5588 40.1655 46.5588 40.9219C46.5588 42.0695 46.7185 42.9367 47.0413 43.53C47.3608 44.1234 48.0519 44.4201 49.1082 44.4201C49.6168 44.4201 50.0667 44.3059 50.4579 44.0777C50.8492 43.8495 51.123 43.5496 51.2795 43.1812C51.436 42.8128 51.5371 42.4574 51.5794 42.1086C51.6218 41.7597 51.6446 41.1859 51.6446 40.3905V39.3472V39.0277V38.7441C51.6446 38.1051 51.6218 37.4628 51.5729 36.8238C51.6283 36.8401 51.7001 36.8499 51.7914 36.8532C51.8826 36.8564 51.9576 36.8597 52.0196 36.8597H52.1598C52.2217 36.8597 52.313 36.8466 52.4304 36.8238L52.3358 37.9258L52.2771 39.1581C52.2771 39.357 52.2771 39.5526 52.2771 39.7449C52.2771 39.9373 52.2804 40.1329 52.2902 40.3318C52.2902 40.8534 52.2739 41.3196 52.238 41.7239C52.2021 42.1314 52.1109 42.5943 51.9609 43.116C51.8109 43.6376 51.4458 44.0745 50.8557 44.4266C50.2688 44.7787 49.6135 44.9547 48.893 44.9547C48.3682 44.9547 47.8857 44.883 47.4423 44.7428C46.9989 44.6026 46.637 44.394 46.3566 44.1266C46.073 43.8593 45.8741 43.5431 45.7567 43.1779C45.6394 42.8128 45.5807 42.3042 45.5807 41.6489L45.6263 39.0407C45.6263 38.6756 45.6198 38.3007 45.6035 37.9095C45.5872 37.5182 45.5774 37.1564 45.5677 36.8238L46.1675 36.8597C46.2686 36.8597 46.3762 36.8597 46.4838 36.8597C46.5751 36.8336 46.6403 36.8206 46.6892 36.8206Z"
		fill="currentColor" />
	<path
		d="M59.5408 44.2668C60.0331 44.2668 60.4374 44.257 60.7569 44.2407C61.0764 44.2244 61.4089 44.1755 61.7479 44.1038C61.7153 44.2538 61.7023 44.3777 61.7023 44.4722C61.7023 44.6222 61.7186 44.7428 61.7479 44.8276H61.5947H59.4626H58.2563H57.4934C57.4934 44.733 57.4999 44.5113 57.5162 44.1625C57.5325 43.8137 57.5391 43.5822 57.5391 43.4616V42.1444V40.8502V39.507L57.4934 36.8238C57.6401 36.7847 57.8064 36.7651 57.9922 36.7651H58.1194C58.2269 36.7651 58.3378 36.7651 58.4454 36.7651C58.5138 36.7945 58.566 36.814 58.5953 36.8238C58.5464 37.3161 58.5138 37.8019 58.5008 38.2844C58.4878 38.7669 58.478 39.3798 58.478 40.1231V41.512V42.9138V44.0875L58.491 44.2668C58.6019 44.2734 58.7486 44.2799 58.9311 44.2799L59.5408 44.2668Z"
		fill="currentColor" />
	<path
		d="M68.6204 40.2078V41.8346V43.4354C68.6204 43.856 68.6237 44.1266 68.6335 44.2537C68.6432 44.3808 68.6693 44.5699 68.715 44.8242C68.6041 44.8079 68.5063 44.7949 68.4216 44.7884C68.3368 44.7818 68.2357 44.7753 68.1281 44.7753C68.0042 44.7753 67.8804 44.7753 67.763 44.7753C67.6619 44.7982 67.5837 44.8145 67.5283 44.8242C67.5609 44.5862 67.5869 44.2244 67.6098 43.7321C67.6326 43.243 67.6456 42.6334 67.6456 41.9031V40.2534V38.7472V38.4995V38.118C67.6456 38.0007 67.6456 37.8735 67.6456 37.7431C67.6456 37.6127 67.6456 37.5051 67.6456 37.4171C66.7947 37.4725 65.9471 37.5247 65.0962 37.5703C65.1288 37.4529 65.1418 37.3421 65.1418 37.2378C65.1418 37.1269 65.1255 36.99 65.0962 36.8237L65.2135 36.8368C65.3309 36.8531 65.5069 36.8661 65.7417 36.8726C65.9764 36.8792 66.2503 36.8857 66.56 36.8857L68.1281 36.8987L71.1112 36.827C71.0656 36.9541 71.0395 37.0813 71.0395 37.2084C71.0395 37.2639 71.0395 37.3095 71.0395 37.3454C71.0395 37.3812 71.0558 37.4595 71.0851 37.5768C70.8276 37.5377 70.4233 37.5084 69.8756 37.4953C69.3279 37.479 68.9171 37.4562 68.6432 37.4236L68.6204 38.7179V40.2078Z"
		fill="currentColor" />
	<path
		d="M76.3177 36.8237L76.2362 39.8035V40.7881V42.1052L76.3308 44.8242C76.021 44.8242 75.8287 44.8242 75.7505 44.8242C75.6461 44.8242 75.5451 44.8242 75.4407 44.8242C75.3364 44.8242 75.2549 44.8242 75.193 44.8242C75.2288 44.4917 75.2549 44.045 75.2712 43.4843C75.2875 42.9235 75.2973 42.4378 75.2973 42.0368V40.8012L75.2614 39.484V38.1082L75.1897 36.827C75.2842 36.8074 75.369 36.7911 75.4472 36.7814C75.5255 36.7716 75.6298 36.7683 75.7635 36.7683C75.8809 36.7683 76.0015 36.7683 76.1286 36.7683C76.2069 36.7944 76.2688 36.814 76.3177 36.8237Z"
		fill="currentColor" />
	<path
		d="M83.9694 39.0766L85.1235 40.322C85.9385 41.199 86.7601 42.076 87.5849 42.9432V40.4035V39.0994L87.4904 36.8238C87.6469 36.8564 87.7805 36.8727 87.8881 36.8727C87.9729 36.8727 88.0642 36.8727 88.1587 36.8727C88.2207 36.8499 88.2696 36.8336 88.2989 36.8238C88.2435 37.2998 88.1979 38.0334 88.162 39.031C88.1261 40.0286 88.1098 41.0718 88.1098 42.164V43.5039C88.1098 44.2962 88.1098 44.7265 88.1098 44.7982V44.9776H87.9338C87.8718 44.8961 87.8132 44.8243 87.7577 44.7559C87.7023 44.6874 87.5523 44.5146 87.3111 44.2342L86.4406 43.2301L84.2856 40.8469L82.1665 38.5843L82.085 38.4996V38.643V40.9414C82.085 41.4761 82.1046 42.2292 82.1437 43.1975C82.1828 44.1658 82.2024 44.707 82.2024 44.8211C82.0524 44.7885 81.9155 44.7722 81.7916 44.7722C81.6514 44.7722 81.5145 44.7885 81.3808 44.8211C81.4427 44.4005 81.4753 44.1592 81.4819 44.0973C81.4884 44.0354 81.4884 43.8039 81.4884 43.4094L81.534 42.0923L81.5699 40.7034L81.5927 39.3863V38.2224V36.6543H81.7818L83.9694 39.0766Z"
		fill="currentColor" />
	<path
		d="M97.5807 37.0748C96.5472 37.0748 95.7224 37.4138 95.1094 38.0887C94.4933 38.7668 94.1868 39.6699 94.1868 40.8012C94.1868 41.9716 94.4933 42.8942 95.1062 43.5626C95.7191 44.2309 96.557 44.5667 97.6198 44.5667C98.2914 44.5667 98.9239 44.433 99.5172 44.1624L99.54 44.0679L99.5629 42.5943C99.5629 42.0955 99.5466 41.626 99.5172 41.1826C99.6248 41.1826 99.7096 41.1826 99.7748 41.1826C99.8367 41.1826 99.9247 41.1826 100.042 41.1826C100.12 41.1826 100.199 41.1826 100.274 41.1826C100.352 41.1826 100.463 41.1826 100.609 41.1826C100.57 41.4597 100.544 41.8086 100.528 42.2324C100.512 42.6562 100.505 43.054 100.505 43.4256V43.7451C100.505 43.9114 100.505 44.0744 100.505 44.2309C100.528 44.3254 100.544 44.4037 100.551 44.4689C99.4944 44.8177 98.4805 44.9905 97.5089 44.9905C96.0745 44.9905 94.9725 44.6352 94.2031 43.9277C93.4337 43.2202 93.0457 42.1998 93.0457 40.8696C93.0457 40.022 93.2446 39.2624 93.6456 38.5908C94.0466 37.9192 94.5976 37.4367 95.3018 37.1432C96.006 36.8498 96.821 36.7031 97.7469 36.7031C98.8424 36.7031 99.7943 36.9248 100.603 37.3682C100.469 37.6127 100.371 37.9094 100.309 38.2582H100.192C99.8856 37.8931 99.5009 37.6062 99.0347 37.391C98.5652 37.1791 98.0827 37.0748 97.5807 37.0748Z"
		fill="currentColor" />
</svg>