<svg width="81" height="64" viewBox="0 0 81 64" fill="none" xmlns="http://www.w3.org/2000/svg">
<path d="M30.104 3.91524L14.8066 49.0144C16.8915 51.8246 22.3231 56.6065 24.7782 58.6461L37.3561 21.3657C39.0785 16.1079 45.2881 16.4931 46.9879 18.1929L60.6989 30.2042L65.7981 15.1334C60.8122 9.05971 52.087 3.00872 48.3476 0.742432C39.4638 0.923735 32.4836 2.93318 30.104 3.91524Z" fill="#E30713"/>
<path d="M58.7726 45.0484L46.308 34.0569L36.4496 63.1787C62.9652 60.4591 76.3363 46.8614 80.3023 42.4422C78.6706 35.3713 75.9208 29.6754 74.7499 27.7113L69.6507 42.4422C67.1578 49.0144 61.3788 47.428 58.7726 45.0484Z" fill="#E30713"/>
<path d="M5.85472 36.6631L14.8066 10.2608C8.18899 13.5243 2.37974 19.4015 0.302307 21.9322C1.11817 27.0087 4.34386 33.868 5.85472 36.6631Z" fill="#E30713"/>
</svg>
