<svg width="121" height="30" viewBox="0 0 121 30" fill="none" xmlns="http://www.w3.org/2000/svg">
<g clip-path="url(#clip0_415_277)">
<path d="M22.2535 16.8403V29.8767H19.1913V17.3996C19.1913 14.1143 17.9084 12.2899 15.3168 12.2899C12.1128 12.2899 10.6945 14.5826 10.6945 18.6089V29.8767H7.61938V9.39604C7.61938 9.39604 10.6945 9.39604 10.6945 12.905V13.5131C11.6035 11.8146 12.8542 9.36808 16.2516 9.38905C19.1075 9.40303 22.2471 11.0806 22.2471 16.8335L22.2535 16.8403Z" fill="#FCFCFC"/>
<path d="M79.3267 16.8403V29.8767H75.9582V17.3996C75.9582 14.1143 74.547 12.2899 71.6963 12.2899C68.1718 12.2899 66.6118 14.5826 66.6118 18.6089V29.8767H63.2291V9.39604C63.2291 9.39604 66.6118 9.39604 66.6118 12.905V13.5131C67.6116 11.8146 68.9874 9.36808 72.7245 9.38905C75.866 9.40303 79.3197 11.0806 79.3197 16.8335L79.3267 16.8403Z" fill="#FCFCFC"/>
<path d="M40.4214 11.4525C38.8772 9.75609 36.6651 8.82556 34.3738 8.91146C34.3738 8.91146 29.8561 8.73252 28.6064 12.5548V4.20162C28.6064 0.615556 25.1947 0.608398 25.1804 0.608398V29.8767C25.1804 29.8767 28.6064 29.8767 28.6064 26.2834V25.3386C28.6064 25.3386 29.3389 29.8338 34.0937 29.8695C36.6076 29.9769 38.9992 28.803 40.4502 26.763C41.9801 24.6944 42.7413 22.089 42.7413 18.9539C42.7413 15.647 41.9656 13.1489 40.4214 11.4525ZM39.3082 19.1185C39.3082 21.4591 38.8557 23.3488 37.9579 24.7804C37.1031 26.1904 35.5374 27.0135 33.8855 26.9276C31.4793 26.9276 30.2081 25.8397 29.3246 23.6566C28.8074 22.2036 28.5633 20.6646 28.6135 19.1257C28.6135 16.5488 29.1882 14.695 30.3373 13.5783C31.3931 12.4975 32.4633 11.8891 33.9788 11.8963C35.5804 11.8175 37.0959 12.6049 37.9579 13.9506C38.9059 15.5038 39.38 17.3076 39.3082 19.1329V19.1185Z" fill="#FCFCFC"/>
<path d="M61.7657 23.5021C60.8998 26.8328 58.5169 29.8767 53.3145 29.8767C47.6903 29.8767 44.2047 25.9862 44.2047 19.7935C44.2047 16.5747 45.4036 13.6849 47.6681 11.7536V11.6906C49.3924 10.2492 51.6124 9.43747 53.9139 9.40249C57.666 9.22056 61.3143 10.8579 61.3808 14.8884C61.4105 18.6179 58.2727 20.0455 54.6392 20.7522C53.3663 21.004 48.0455 20.9481 48.5413 23.7191C48.9336 25.9513 51.0575 27.1057 53.3811 27.1057C55.9416 27.1057 57.4292 25.8182 58.2579 23.5091H61.7657V23.5021ZM53.6032 12.0125C49.9918 12.0125 47.8383 15.2872 47.8383 19.6745C47.8383 19.7796 47.8457 19.8845 47.8457 19.9894C49.6884 18.2471 54.025 18.4921 55.9416 17.5684C57.8805 16.7568 58.2431 13.9508 56.4745 12.8032C55.616 12.2854 54.6169 12.0125 53.5958 12.0195L53.6032 12.0125Z" fill="#FCFCFC"/>
<path d="M108.581 20.2971V29.8767C106.306 29.8767 105.599 28.4503 105.405 27.2126C105.391 27.2055 105.384 26.5972 105.384 26.5972C104.482 28.2614 101.902 29.7718 99.4956 29.8627C95.9793 30.0375 92.5601 28.4083 92.4976 24.3807C92.4699 20.6607 95.3621 19.0175 98.8159 18.584C99.877 18.2694 104.461 18.4581 104.399 16.2485C104.281 12.06 100.439 12.1649 100.439 12.1649C98.0391 12.1649 96.645 13.4515 95.8683 15.759H92.574C93.3854 12.4306 95.6186 9.38892 100.494 9.38892C105.765 9.38892 108.595 13.2138 108.595 19.402C108.595 19.6817 108.595 20.0244 108.581 20.2971ZM99.7868 27.2546C103.171 27.2546 105.19 23.9821 105.19 19.5978C105.19 19.4929 105.19 19.3881 105.183 19.2832C103.456 21.0244 99.3916 20.7795 97.5952 21.7025C95.7781 22.5137 95.4383 25.3176 97.0959 26.4645C97.9004 26.9818 98.8366 27.2546 99.7939 27.2546H99.7868Z" fill="#FCFCFC"/>
<path d="M114.449 27.6815C114.449 28.8977 113.462 29.8766 112.254 29.8766C111.045 29.8766 110.058 28.8902 110.058 27.6815C110.058 26.4727 111.045 25.4863 112.254 25.4863C113.462 25.4863 114.449 26.4727 114.449 27.6815Z" fill="#F1B605"/>
<path d="M4.24835 8.90633V29.8767H0.746513V12.2928C0.746513 10.4242 2.31604 8.90633 4.24835 8.90633ZM4.69255 2.72763C4.69255 1.55346 3.70789 0.608398 2.50113 0.608398C1.29437 0.608398 0.302307 1.56062 0.302307 2.72763C0.302307 3.9018 1.28697 4.84686 2.49373 4.84686C3.70049 4.84686 4.68515 3.89464 4.68515 2.72763H4.69255Z" fill="#FCFCFC"/>
<path d="M83.0622 0.608398C83.0622 0.608398 86.1238 0.608398 86.1238 4.20162V21.5594C86.1238 25.3673 86.8235 26.4481 89.898 26.4481H90.45V29.8767H88.9993C84.6541 29.8767 83.0622 26.8347 83.0622 21.681V0.608398ZM91.034 11.8963H80.7901V8.92577H88.3639C89.8337 8.92577 91.0276 10.25 91.0276 11.8963H91.034Z" fill="#FCFCFC"/>
<path d="M117.375 1.09227H116.319V3.53523H115.515V1.09227H114.449V0.608398H117.375V1.09227Z" fill="#FCFCFC"/>
<path d="M119.662 2.0248L119.734 1.46646H119.705L119.519 1.96602L118.936 2.99453H118.72L118.102 1.96602L117.915 1.46059H117.886L117.98 2.0248V3.53523H117.375V0.608398H117.994L118.742 1.87199L118.864 2.23637H118.886L119.001 1.86611L119.698 0.608398H120.302V3.52934H119.662V2.0248Z" fill="#FCFCFC"/>
</g>
<defs>
<clipPath id="clip0_415_277">
<rect width="120" height="29.2683" fill="white" transform="translate(0.302307 0.608398)"/>
</clipPath>
</defs>
</svg>
