<svg width="544" height="75" viewBox="0 0 544 75" fill="none" xmlns="http://www.w3.org/2000/svg">
<path fill-rule="evenodd" clip-rule="evenodd" d="M0.504272 0.272705V73H18.0824V43.7741H46.958C46.9202 44.4841 46.9013 45.2062 46.9013 45.9403C46.9013 51.7405 48.0022 56.7476 50.2039 60.9617C52.4292 65.152 55.6016 68.3835 59.7209 70.6562C63.8639 72.9053 68.7881 74.0298 74.4936 74.0298C79.2522 74.0298 83.4425 73.3078 87.0647 71.8636C90.6868 70.3958 93.6106 68.348 95.836 65.7202C98.085 63.0687 99.541 59.9555 100.204 56.3807L84.2593 55.919C83.8094 57.1264 83.1347 58.1444 82.2351 58.973C81.3355 59.8016 80.2583 60.429 79.0036 60.8551C77.7488 61.2812 76.3521 61.4943 74.8132 61.4943C72.5879 61.4943 70.6702 61.0327 69.0604 60.1094C67.4506 59.1861 66.2077 57.8958 65.3317 56.2386C64.4558 54.5578 64.0178 52.6046 64.0178 50.3793V49.9176H100.381V45.5852C100.381 41.1108 99.7304 37.1454 98.4283 33.6889C97.1262 30.2088 95.3033 27.285 92.9595 24.9176C90.6158 22.5502 87.8341 20.7628 84.6144 19.5554C81.3947 18.348 77.8435 17.7443 73.961 17.7443C68.4685 17.7443 63.6982 18.928 59.6499 21.2955C55.6016 23.6392 52.4648 26.9299 50.2394 31.1676C48.374 34.7 47.2904 38.7314 46.9886 43.2618V29.463H18.0824V14.5483H50.1492V0.272705H0.504272ZM157.825 73V0.272705H188.151C193.596 0.272705 198.154 1.04212 201.823 2.58094C205.516 4.11977 208.286 6.27413 210.133 9.04401C212.003 11.8139 212.938 15.0218 212.938 18.6676C212.938 21.4375 212.358 23.9114 211.198 26.0895C210.038 28.2438 208.44 30.0312 206.404 31.4517C204.368 32.8721 202.013 33.8665 199.337 34.4346V35.1449C202.273 35.2869 204.984 36.08 207.469 37.5241C209.979 38.9683 211.991 40.9806 213.506 43.5611C215.022 46.1179 215.779 49.1482 215.779 52.652C215.779 56.5582 214.785 60.0502 212.796 63.1278C210.808 66.1818 207.931 68.5966 204.167 70.3721C200.403 72.124 195.834 73 190.46 73H157.825ZM175.403 58.8309H186.269C190.081 58.8309 192.886 58.1089 194.685 56.6648C196.508 55.2206 197.42 53.2083 197.42 50.6278C197.42 48.7576 196.982 47.1477 196.106 45.7983C195.23 44.4252 193.987 43.3717 192.377 42.6378C190.767 41.8802 188.838 41.5014 186.589 41.5014H175.403V58.8309ZM175.403 30.1733H185.133C187.05 30.1733 188.755 29.8537 190.246 29.2145C191.738 28.5753 192.898 27.652 193.727 26.4446C194.579 25.2372 195.005 23.7812 195.005 22.0767C195.005 19.6382 194.141 17.7206 192.413 16.3238C190.684 14.9271 188.353 14.2287 185.417 14.2287H175.403V30.1733ZM343.812 70.6562C347.103 72.7396 350.761 73.7812 354.786 73.7812C357.532 73.7812 359.911 73.3314 361.923 72.4318C363.959 71.5322 365.652 70.3485 367.001 68.8807C368.351 67.4129 369.393 65.8385 370.126 64.1576H370.659V73H387.847V0.272705H370.482V27.794H370.126C369.44 26.1368 368.434 24.5388 367.108 23C365.782 21.4612 364.101 20.2064 362.065 19.2358C360.029 18.2415 357.579 17.7443 354.714 17.7443C350.903 17.7443 347.34 18.7386 344.026 20.7272C340.735 22.7159 338.072 25.7817 336.036 29.9247C334 34.0677 332.982 39.347 332.982 45.7628C332.982 51.9417 333.964 57.1146 335.929 61.2812C337.894 65.4479 340.522 68.5729 343.812 70.6562ZM366.22 58.4758C364.729 59.6595 362.929 60.2514 360.822 60.2514C358.668 60.2514 356.845 59.6595 355.354 58.4758C353.886 57.2684 352.761 55.5757 351.98 53.3977C351.199 51.2197 350.808 48.6629 350.808 45.7273C350.808 42.7916 351.187 40.2467 351.945 38.0923C352.726 35.938 353.862 34.2689 355.354 33.0852C356.845 31.9015 358.668 31.3096 360.822 31.3096C362.929 31.3096 364.729 31.8897 366.22 33.0497C367.735 34.2097 368.884 35.8669 369.665 38.0213C370.47 40.1756 370.872 42.7443 370.872 45.7273C370.872 48.6629 370.47 51.2197 369.665 53.3977C368.86 55.5757 367.712 57.2684 366.22 58.4758ZM464.787 73V0.272705H447.422V73H464.787ZM486.217 73.9233C482.737 73.9233 479.647 73.3433 476.948 72.1832C474.273 70.9995 472.154 69.224 470.592 66.8565C469.053 64.4654 468.283 61.4706 468.283 57.8722C468.283 54.8419 468.816 52.285 469.881 50.2017C470.947 48.1184 472.415 46.4257 474.285 45.1236C476.155 43.8215 478.309 42.839 480.748 42.1761C483.186 41.4896 485.79 41.0279 488.56 40.7912C491.662 40.5071 494.159 40.2112 496.053 39.9034C497.947 39.572 499.32 39.1103 500.173 38.5185C501.049 37.9029 501.487 37.0388 501.487 35.9261V35.7486C501.487 33.9257 500.859 32.5171 499.604 31.5227C498.35 30.5284 496.657 30.0313 494.526 30.0313C492.23 30.0313 490.383 30.5284 488.987 31.5227C487.59 32.5171 486.702 33.8902 486.323 35.642L470.308 35.0739C470.781 31.7595 472 28.8002 473.965 26.196C475.954 23.5682 478.676 21.5085 482.133 20.017C485.613 18.5019 489.791 17.7443 494.668 17.7443C498.148 17.7443 501.356 18.1586 504.292 18.9872C507.228 19.7921 509.784 20.9759 511.962 22.5384C514.14 24.0772 515.821 25.9711 517.005 28.2202C518.212 30.4692 518.816 33.0379 518.816 35.9261V73H502.481V65.4006H502.055C501.084 67.2472 499.841 68.8097 498.326 70.0881C496.835 71.3665 495.071 72.3253 493.035 72.9645C491.022 73.6037 488.75 73.9233 486.217 73.9233ZM491.579 62.5597C493.449 62.5597 495.13 62.1809 496.621 61.4233C498.137 60.6657 499.344 59.6241 500.244 58.2983C501.143 56.9489 501.593 55.3864 501.593 53.6108V48.4261C501.096 48.6866 500.492 48.9233 499.782 49.1364C499.095 49.3494 498.338 49.5507 497.509 49.7401C496.681 49.9295 495.828 50.0952 494.952 50.2372C494.076 50.3793 493.236 50.5095 492.431 50.6278C490.798 50.8883 489.401 51.2907 488.241 51.8352C487.104 52.3797 486.228 53.09 485.613 53.9659C485.021 54.8182 484.725 55.8362 484.725 57.0199C484.725 58.8191 485.364 60.1922 486.643 61.1392C487.945 62.0862 489.59 62.5597 491.579 62.5597ZM534.2 74.0298C531.643 74.0298 529.453 73.1302 527.63 71.331C525.831 69.5317 524.943 67.3537 524.967 64.7969C524.943 62.2874 525.831 60.1449 527.63 58.3693C529.453 56.5701 531.643 55.6705 534.2 55.6705C536.614 55.6705 538.745 56.5701 540.592 58.3693C542.462 60.1449 543.409 62.2874 543.433 64.7969C543.409 66.5014 542.959 68.0521 542.083 69.4489C541.231 70.8457 540.106 71.9584 538.71 72.7869C537.336 73.6155 535.833 74.0298 534.2 74.0298ZM409.205 73.9233C405.725 73.9233 402.635 73.3433 399.936 72.1832C397.261 70.9995 395.142 69.224 393.58 66.8565C392.041 64.4654 391.272 61.4706 391.272 57.8722C391.272 54.8419 391.804 52.285 392.87 50.2017C393.935 48.1184 395.403 46.4257 397.273 45.1236C399.143 43.8215 401.298 42.839 403.736 42.1761C406.175 41.4896 408.779 41.0279 411.549 40.7912C414.65 40.5071 417.148 40.2112 419.042 39.9034C420.936 39.572 422.309 39.1103 423.161 38.5185C424.037 37.9029 424.475 37.0388 424.475 35.9261V35.7486C424.475 33.9257 423.847 32.5171 422.593 31.5227C421.338 30.5284 419.645 30.0313 417.515 30.0313C415.218 30.0313 413.372 30.5284 411.975 31.5227C410.578 32.5171 409.69 33.8902 409.311 35.642L393.296 35.0739C393.769 31.7595 394.989 28.8002 396.953 26.196C398.942 23.5682 401.665 21.5085 405.121 20.017C408.601 18.5019 412.78 17.7443 417.657 17.7443C421.137 17.7443 424.345 18.1586 427.28 18.9872C430.216 19.7921 432.773 20.9759 434.951 22.5384C437.129 24.0772 438.81 25.9711 439.993 28.2202C441.201 30.4692 441.804 33.0379 441.804 35.9261V73H425.469V65.4006H425.043C424.072 67.2472 422.829 68.8097 421.314 70.0881C419.823 71.3665 418.059 72.3253 416.023 72.9645C414.011 73.6037 411.738 73.9233 409.205 73.9233ZM414.567 62.5597C416.437 62.5597 418.118 62.1809 419.61 61.4233C421.125 60.6657 422.332 59.6241 423.232 58.2983C424.132 56.9489 424.581 55.3864 424.581 53.6108V48.4261C424.084 48.6866 423.48 48.9233 422.77 49.1364C422.084 49.3494 421.326 49.5507 420.498 49.7401C419.669 49.9295 418.817 50.0952 417.941 50.2372C417.065 50.3793 416.224 50.5095 415.419 50.6278C413.786 50.8883 412.389 51.2907 411.229 51.8352C410.093 52.3797 409.217 53.09 408.601 53.9659C408.009 54.8182 407.713 55.8362 407.713 57.0199C407.713 58.8191 408.353 60.1922 409.631 61.1392C410.933 62.0862 412.578 62.5597 414.567 62.5597ZM293.85 41.892V73H276.485V18.4545H292.998V28.4688H293.601C294.809 25.1307 296.868 22.5147 299.78 20.6207C302.692 18.7031 306.16 17.7443 310.185 17.7443C314.02 17.7443 317.346 18.6084 320.164 20.3366C323.005 22.0412 325.206 24.4323 326.769 27.5099C328.355 30.5639 329.136 34.1387 329.113 38.2344V73H311.748V41.6435C311.771 38.6132 311.002 36.2457 309.439 34.5412C307.9 32.8367 305.758 31.9844 303.012 31.9844C301.189 31.9844 299.579 32.3868 298.182 33.1918C296.809 33.973 295.744 35.0975 294.986 36.5653C294.252 38.0331 293.873 39.8087 293.85 41.892ZM231.955 70.6562C236.098 72.9053 241.022 74.0298 246.728 74.0298C251.487 74.0298 255.677 73.3078 259.299 71.8636C262.921 70.3958 265.845 68.348 268.07 65.7202C270.319 63.0687 271.775 59.9555 272.438 56.3807L256.494 55.919C256.044 57.1264 255.369 58.1444 254.469 58.973C253.57 59.8016 252.493 60.429 251.238 60.8551C249.983 61.2812 248.586 61.4943 247.048 61.4943C244.822 61.4943 242.905 61.0327 241.295 60.1094C239.685 59.1861 238.442 57.8958 237.566 56.2386C236.69 54.5578 236.252 52.6046 236.252 50.3793V49.9176H272.616V45.5852C272.616 41.1108 271.965 37.1454 270.663 33.6889C269.361 30.2088 267.538 27.285 265.194 24.9176C262.85 22.5502 260.068 20.7628 256.849 19.5554C253.629 18.348 250.078 17.7443 246.195 17.7443C240.703 17.7443 235.933 18.928 231.884 21.2955C227.836 23.6392 224.699 26.9299 222.474 31.1676C220.248 35.3816 219.136 40.3059 219.136 45.9403C219.136 51.7405 220.237 56.7476 222.438 60.9617C224.664 65.152 227.836 68.3835 231.955 70.6562ZM236.263 39.8324C236.349 38.0768 236.819 36.5025 237.673 35.1094C238.572 33.6179 239.791 32.446 241.33 31.5938C242.869 30.7178 244.609 30.2798 246.55 30.2798C248.468 30.2798 250.161 30.6941 251.629 31.5227C253.12 32.3277 254.292 33.4522 255.144 34.8963C255.996 36.3404 256.434 37.9858 256.458 39.8324H236.263ZM104.25 18.4545V73H121.615V43.3835C121.615 41.2055 122.077 39.3116 123 37.7017C123.947 36.0682 125.238 34.8016 126.871 33.902C128.528 32.9787 130.387 32.517 132.446 32.517C133.488 32.517 134.672 32.5999 135.998 32.7656C137.347 32.9313 138.436 33.1562 139.265 33.4403V18.348C138.531 18.1349 137.738 17.9811 136.885 17.8864C136.033 17.768 135.204 17.7088 134.4 17.7088C131.417 17.7088 128.801 18.5966 126.552 20.3722C124.302 22.1241 122.681 24.7992 121.686 28.3977H121.118V18.4545H104.25ZM65.4382 35.1094C64.5844 36.5025 64.1144 38.0768 64.0283 39.8324H84.2238C84.2001 37.9858 83.7621 36.3404 82.9098 34.8963C82.0576 33.4522 80.8857 32.3277 79.3942 31.5227C77.9264 30.6941 76.2337 30.2798 74.3161 30.2798C72.3748 30.2798 70.6347 30.7178 69.0959 31.5938C67.5571 32.446 66.3379 33.6179 65.4382 35.1094Z" fill="url(#paint0_linear_431_183)"/>
<defs>
<linearGradient id="paint0_linear_431_183" x1="395.606" y1="54.4897" x2="390.011" y2="-22.74" gradientUnits="userSpaceOnUse">
<stop stop-color="#FF1FB1"/>
<stop offset="1" stop-color="#79FBFF"/>
</linearGradient>
</defs>
</svg>
