<svg width="544" height="75" viewBox="0 0 544 75" fill="none" xmlns="http://www.w3.org/2000/svg">
<path d="M534.2 74.0298C531.643 74.0298 529.453 73.1302 527.63 71.3309C525.831 69.5317 524.943 67.3536 524.967 64.7968C524.943 62.2874 525.831 60.1448 527.63 58.3693C529.453 56.57 531.643 55.6704 534.2 55.6704C536.614 55.6704 538.745 56.57 540.592 58.3693C542.462 60.1448 543.409 62.2874 543.433 64.7968C543.409 66.5014 542.959 68.052 542.083 69.4488C541.231 70.8456 540.106 71.9583 538.71 72.7869C537.336 73.6155 535.833 74.0298 534.2 74.0298Z" fill="#FAFAFF"/>
<path d="M486.217 73.9232C482.737 73.9232 479.647 73.3432 476.948 72.1832C474.273 70.9995 472.154 69.2239 470.592 66.8565C469.053 64.4654 468.283 61.4706 468.283 57.8721C468.283 54.8418 468.816 52.285 469.881 50.2016C470.947 48.1183 472.415 46.4256 474.285 45.1235C476.155 43.8214 478.309 42.839 480.748 42.1761C483.186 41.4895 485.79 41.0279 488.56 40.7911C491.662 40.507 494.159 40.2111 496.053 39.9034C497.947 39.5719 499.32 39.1103 500.173 38.5184C501.049 37.9029 501.487 37.0388 501.487 35.9261V35.7485C501.487 33.9256 500.859 32.517 499.604 31.5227C498.35 30.5284 496.657 30.0312 494.526 30.0312C492.23 30.0312 490.383 30.5284 488.987 31.5227C487.59 32.517 486.702 33.8901 486.323 35.642L470.308 35.0738C470.781 31.7594 472 28.8001 473.965 26.196C475.954 23.5681 478.676 21.5085 482.133 20.017C485.613 18.5018 489.791 17.7443 494.668 17.7443C498.148 17.7443 501.356 18.1586 504.292 18.9872C507.228 19.7921 509.784 20.9758 511.962 22.5383C514.14 24.0771 515.821 25.9711 517.005 28.2201C518.212 30.4692 518.816 33.0378 518.816 35.9261V72.9999H502.481V65.4005H502.055C501.084 67.2471 499.841 68.8096 498.326 70.088C496.835 71.3664 495.071 72.3252 493.035 72.9644C491.022 73.6036 488.75 73.9232 486.217 73.9232ZM491.579 62.5596C493.449 62.5596 495.13 62.1808 496.621 61.4232C498.137 60.6657 499.344 59.624 500.244 58.2982C501.143 56.9488 501.593 55.3863 501.593 53.6107V48.4261C501.096 48.6865 500.492 48.9232 499.782 49.1363C499.095 49.3494 498.338 49.5506 497.509 49.74C496.681 49.9294 495.828 50.0951 494.952 50.2372C494.076 50.3792 493.236 50.5094 492.431 50.6278C490.798 50.8882 489.401 51.2907 488.241 51.8352C487.104 52.3797 486.228 53.0899 485.613 53.9658C485.021 54.8181 484.725 55.8361 484.725 57.0198C484.725 58.8191 485.364 60.1922 486.643 61.1391C487.945 62.0861 489.59 62.5596 491.579 62.5596Z" fill="#FAFAFF"/>
<path d="M464.787 0.272705V73H447.422V0.272705H464.787Z" fill="#FAFAFF"/>
<path d="M409.205 73.9232C405.725 73.9232 402.635 73.3432 399.936 72.1832C397.261 70.9995 395.142 69.2239 393.58 66.8565C392.041 64.4654 391.272 61.4706 391.272 57.8721C391.272 54.8418 391.804 52.285 392.87 50.2016C393.935 48.1183 395.403 46.4256 397.273 45.1235C399.143 43.8214 401.298 42.839 403.736 42.1761C406.175 41.4895 408.779 41.0279 411.549 40.7911C414.65 40.507 417.148 40.2111 419.042 39.9034C420.936 39.5719 422.309 39.1103 423.161 38.5184C424.037 37.9029 424.475 37.0388 424.475 35.9261V35.7485C424.475 33.9256 423.847 32.517 422.593 31.5227C421.338 30.5284 419.645 30.0312 417.515 30.0312C415.218 30.0312 413.372 30.5284 411.975 31.5227C410.578 32.517 409.69 33.8901 409.311 35.642L393.296 35.0738C393.769 31.7594 394.989 28.8001 396.953 26.196C398.942 23.5681 401.665 21.5085 405.121 20.017C408.601 18.5018 412.78 17.7443 417.657 17.7443C421.137 17.7443 424.345 18.1586 427.28 18.9872C430.216 19.7921 432.773 20.9758 434.951 22.5383C437.129 24.0771 438.81 25.9711 439.993 28.2201C441.201 30.4692 441.804 33.0378 441.804 35.9261V72.9999H425.469V65.4005H425.043C424.072 67.2471 422.829 68.8096 421.314 70.088C419.823 71.3664 418.059 72.3252 416.023 72.9644C414.011 73.6036 411.738 73.9232 409.205 73.9232ZM414.567 62.5596C416.437 62.5596 418.118 62.1808 419.61 61.4232C421.125 60.6657 422.332 59.624 423.232 58.2982C424.132 56.9488 424.581 55.3863 424.581 53.6107V48.4261C424.084 48.6865 423.48 48.9232 422.77 49.1363C422.084 49.3494 421.326 49.5506 420.498 49.74C419.669 49.9294 418.817 50.0951 417.941 50.2372C417.065 50.3792 416.224 50.5094 415.419 50.6278C413.786 50.8882 412.389 51.2907 411.229 51.8352C410.093 52.3797 409.217 53.0899 408.601 53.9658C408.009 54.8181 407.713 55.8361 407.713 57.0198C407.713 58.8191 408.353 60.1922 409.631 61.1391C410.933 62.0861 412.578 62.5596 414.567 62.5596Z" fill="#FAFAFF"/>
<path d="M354.786 73.7812C350.761 73.7812 347.103 72.7396 343.812 70.6562C340.522 68.5729 337.894 65.4479 335.929 61.2812C333.964 57.1146 332.982 51.9417 332.982 45.7628C332.982 39.347 334 34.0677 336.036 29.9247C338.072 25.7817 340.735 22.7159 344.026 20.7272C347.34 18.7386 350.903 17.7443 354.714 17.7443C357.579 17.7443 360.029 18.2415 362.065 19.2358C364.101 20.2064 365.782 21.4612 367.108 23C368.434 24.5388 369.44 26.1368 370.126 27.794H370.482V0.272705H387.847V73H370.659V64.1576H370.126C369.393 65.8385 368.351 67.4129 367.001 68.8807C365.652 70.3485 363.959 71.5322 361.923 72.4318C359.911 73.3314 357.532 73.7812 354.786 73.7812ZM360.822 60.2514C362.929 60.2514 364.729 59.6595 366.22 58.4758C367.712 57.2684 368.86 55.5757 369.665 53.3977C370.47 51.2197 370.872 48.6629 370.872 45.7273C370.872 42.7443 370.47 40.1756 369.665 38.0213C368.884 35.8669 367.735 34.2097 366.22 33.0497C364.729 31.8897 362.929 31.3096 360.822 31.3096C358.668 31.3096 356.845 31.9015 355.354 33.0852C353.862 34.2689 352.726 35.938 351.945 38.0923C351.187 40.2467 350.808 42.7916 350.808 45.7273C350.808 48.6629 351.199 51.2197 351.98 53.3977C352.761 55.5757 353.886 57.2684 355.354 58.4758C356.845 59.6595 358.668 60.2514 360.822 60.2514Z" fill="#FAFAFF"/>
<path d="M293.85 41.892V72.9999H276.485V18.4545H292.998V28.4687H293.601C294.809 25.1306 296.868 22.5146 299.78 20.6207C302.692 18.7031 306.16 17.7443 310.185 17.7443C314.02 17.7443 317.346 18.6084 320.164 20.3366C323.005 22.0411 325.206 24.4322 326.769 27.5099C328.355 30.5639 329.136 34.1387 329.113 38.2343V72.9999H311.748V41.6434C311.771 38.6131 311.002 36.2457 309.439 34.5411C307.9 32.8366 305.758 31.9843 303.012 31.9843C301.189 31.9843 299.579 32.3868 298.182 33.1917C296.809 33.9729 295.744 35.0975 294.986 36.5653C294.252 38.0331 293.873 39.8087 293.85 41.892Z" fill="#FAFAFF"/>
<path d="M246.728 74.0298C241.023 74.0298 236.098 72.9052 231.955 70.6562C227.836 68.3835 224.664 65.1519 222.438 60.9616C220.237 56.7476 219.136 51.7405 219.136 45.9403C219.136 40.3058 220.248 35.3816 222.474 31.1676C224.699 26.9299 227.836 23.6391 231.884 21.2954C235.933 18.928 240.703 17.7443 246.195 17.7443C250.078 17.7443 253.629 18.348 256.849 19.5553C260.068 20.7627 262.85 22.5501 265.194 24.9176C267.538 27.285 269.361 30.2087 270.663 33.6889C271.965 37.1453 272.616 41.1107 272.616 45.5852V49.9176H225.208V39.8323H256.458C256.434 37.9857 255.996 36.3404 255.144 34.8963C254.292 33.4521 253.12 32.3276 251.629 31.5227C250.161 30.6941 248.468 30.2798 246.55 30.2798C244.609 30.2798 242.869 30.7177 241.33 31.5937C239.791 32.446 238.572 33.6178 237.673 35.1093C236.773 36.5771 236.3 38.2462 236.252 40.1164V50.3792C236.252 52.6046 236.69 54.5577 237.566 56.2386C238.442 57.8958 239.685 59.186 241.295 60.1093C242.905 61.0326 244.822 61.4943 247.048 61.4943C248.586 61.4943 249.983 61.2812 251.238 60.8551C252.493 60.4289 253.57 59.8015 254.469 58.9729C255.369 58.1444 256.044 57.1264 256.494 55.919L272.438 56.3806C271.775 59.9554 270.319 63.0686 268.07 65.7201C265.845 68.348 262.921 70.3958 259.299 71.8636C255.677 73.3077 251.487 74.0298 246.728 74.0298Z" fill="#FAFAFF"/>
<path d="M157.825 73V0.272705H188.151C193.596 0.272705 198.154 1.04212 201.823 2.58094C205.516 4.11977 208.286 6.27413 210.133 9.04401C212.003 11.8139 212.938 15.0218 212.938 18.6676C212.938 21.4375 212.358 23.9114 211.198 26.0895C210.038 28.2438 208.44 30.0312 206.404 31.4517C204.368 32.8721 202.013 33.8665 199.337 34.4346V35.1449C202.273 35.2869 204.984 36.08 207.469 37.5241C209.979 38.9683 211.991 40.9806 213.506 43.5611C215.022 46.1179 215.779 49.1482 215.779 52.652C215.779 56.5582 214.785 60.0502 212.796 63.1278C210.808 66.1818 207.931 68.5966 204.167 70.3721C200.403 72.124 195.834 73 190.46 73H157.825ZM175.403 58.8309H186.269C190.081 58.8309 192.886 58.1089 194.685 56.6648C196.508 55.2206 197.42 53.2083 197.42 50.6278C197.42 48.7576 196.982 47.1477 196.106 45.7983C195.23 44.4252 193.987 43.3717 192.377 42.6378C190.767 41.8802 188.838 41.5014 186.589 41.5014H175.403V58.8309ZM175.403 30.1733H185.133C187.05 30.1733 188.755 29.8537 190.246 29.2145C191.738 28.5753 192.898 27.652 193.727 26.4446C194.579 25.2372 195.005 23.7812 195.005 22.0767C195.005 19.6382 194.141 17.7206 192.413 16.3238C190.684 14.9271 188.353 14.2287 185.417 14.2287H175.403V30.1733Z" fill="#FAFAFF"/>
<path d="M104.25 72.9999V18.4545H121.118V28.3977H121.686C122.681 24.7992 124.302 22.124 126.552 20.3721C128.801 18.5965 131.417 17.7087 134.4 17.7087C135.204 17.7087 136.033 17.7679 136.885 17.8863C137.738 17.981 138.531 18.1349 139.265 18.3479V33.4403C138.436 33.1562 137.347 32.9313 135.998 32.7656C134.672 32.5998 133.488 32.517 132.446 32.517C130.387 32.517 128.528 32.9786 126.871 33.9019C125.238 34.8015 123.947 36.0681 123 37.7016C122.077 39.3115 121.615 41.2054 121.615 43.3835V72.9999H104.25Z" fill="#FAFAFF"/>
<path d="M74.4936 74.0298C68.7881 74.0298 63.8639 72.9052 59.7209 70.6562C55.6016 68.3835 52.4292 65.1519 50.2039 60.9616C48.0022 56.7476 46.9013 51.7405 46.9013 45.9403C46.9013 40.3058 48.014 35.3816 50.2394 31.1676C52.4648 26.9299 55.6016 23.6391 59.6499 21.2954C63.6982 18.928 68.4685 17.7443 73.961 17.7443C77.8435 17.7443 81.3947 18.348 84.6144 19.5553C87.8341 20.7627 90.6158 22.5501 92.9595 24.9176C95.3033 27.285 97.1262 30.2087 98.4283 33.6889C99.7304 37.1453 100.381 41.1107 100.381 45.5852V49.9176H52.9737V39.8323H84.2238C84.2001 37.9857 83.7621 36.3404 82.9098 34.8963C82.0576 33.4521 80.8857 32.3276 79.3942 31.5227C77.9264 30.6941 76.2337 30.2798 74.3161 30.2798C72.3748 30.2798 70.6347 30.7177 69.0959 31.5937C67.5571 32.446 66.3379 33.6178 65.4382 35.1093C64.5386 36.5771 64.0651 38.2462 64.0178 40.1164V50.3792C64.0178 52.6046 64.4558 54.5577 65.3317 56.2386C66.2077 57.8958 67.4506 59.186 69.0604 60.1093C70.6702 61.0326 72.5879 61.4943 74.8132 61.4943C76.3521 61.4943 77.7488 61.2812 79.0036 60.8551C80.2583 60.4289 81.3355 59.8015 82.2351 58.9729C83.1347 58.1444 83.8094 57.1264 84.2593 55.919L100.204 56.3806C99.541 59.9554 98.085 63.0686 95.836 65.7201C93.6106 68.348 90.6868 70.3958 87.0647 71.8636C83.4425 73.3077 79.2522 74.0298 74.4936 74.0298Z" fill="#FAFAFF"/>
<path d="M0.504272 73V0.272705H50.1492V14.5483H18.0824V29.463H46.9886V43.7741H18.0824V73H0.504272Z" fill="#FAFAFF"/>
</svg>
