<svg width="56" height="55" viewBox="0 0 56 55" fill="none" xmlns="http://www.w3.org/2000/svg">
<g clip-path="url(#clip0_415_147)">
<path d="M53.375 0H2.625C1.17525 0 0 1.15427 0 2.57812V52.4219C0 53.8457 1.17525 55 2.625 55H53.375C54.8247 55 56 53.8457 56 52.4219V2.57812C56 1.15427 54.8247 0 53.375 0Z" fill="#3178C6"/>
<path fill-rule="evenodd" clip-rule="evenodd" d="M32.4897 42.7402V48.767C33.4839 49.2688 34.6596 49.6457 36.0171 49.8966C37.3745 50.148 38.8052 50.2734 40.3092 50.2734C41.7749 50.2734 43.1673 50.1355 44.4863 49.8592C45.8058 49.5829 46.9621 49.1279 47.9566 48.4937C48.9506 47.8595 49.7376 47.031 50.3177 46.0075C50.8974 44.9844 51.1875 43.7194 51.1875 42.2128C51.1875 41.1205 51.0217 40.1631 50.6905 39.3407C50.3589 38.5183 49.8811 37.787 49.2564 37.1467C48.6321 36.5063 47.8831 35.9319 47.0103 35.4234C46.137 34.9149 45.1526 34.4347 44.0562 33.9827C43.2533 33.6563 42.5332 33.3392 41.896 33.0316C41.2587 32.724 40.717 32.4101 40.2709 32.09C39.8248 31.7698 39.4807 31.4308 39.2385 31.0729C38.9963 30.7151 38.8752 30.3102 38.8752 29.8582C38.8752 29.4439 38.9836 29.0703 39.2003 28.7376C39.417 28.4049 39.7229 28.1193 40.118 27.8807C40.5131 27.6422 40.9974 27.457 41.5709 27.3252C42.1445 27.1933 42.7818 27.1274 43.4828 27.1274C43.9928 27.1274 44.5309 27.1651 45.0984 27.2404C45.6654 27.3157 46.2359 27.4319 46.8094 27.5888C47.383 27.7457 47.9404 27.9435 48.4824 28.182C49.0241 28.4206 49.5241 28.6968 49.9831 29.0107V23.3796C49.0525 23.028 48.0362 22.7675 46.9337 22.598C45.8312 22.4285 44.5664 22.3438 43.1386 22.3438C41.6857 22.3438 40.3091 22.4975 39.0091 22.8051C37.709 23.1128 36.5651 23.593 35.5773 24.2459C34.5895 24.8988 33.8089 25.7306 33.2353 26.7413C32.6618 27.752 32.375 28.9605 32.375 30.3667C32.375 32.1622 32.9007 33.6939 33.9523 34.962C35.0038 36.2301 36.6002 37.3036 38.7414 38.1825C39.5826 38.5215 40.3665 38.8542 41.093 39.1807C41.8195 39.5071 42.4472 39.8461 42.9762 40.1977C43.5051 40.5492 43.9224 40.9322 44.2282 41.3465C44.5344 41.7608 44.6871 42.2316 44.6871 42.759C44.6871 43.1484 44.5918 43.5093 44.4006 43.8419C44.2094 44.1745 43.9193 44.4632 43.5306 44.7081C43.1418 44.953 42.6575 45.1447 42.0776 45.2826C41.4977 45.4205 40.819 45.4897 40.0415 45.4897C38.7159 45.4897 37.4031 45.2607 36.1031 44.8022C34.803 44.3442 33.5986 43.6567 32.4897 42.7402ZM22.1824 27.7382H30.1875V22.7734H7.875V27.7382H15.841V49.8438H22.1824V27.7382Z" fill="#FAFAFF"/>
</g>
<defs>
<clipPath id="clip0_415_147">
<rect width="56" height="55" fill="white"/>
</clipPath>
</defs>
</svg>
