<svg width="55" height="50" viewBox="0 0 55 50" fill="none" xmlns="http://www.w3.org/2000/svg">
<g clip-path="url(#clip0_415_225)">
<path d="M11.9758 1.64539L27.4446 0L42.9133 1.64539L54.8891 17.8204L27.4446 49.9751L0 17.8204L11.9758 1.64539Z" fill="#FDB300"/>
<path d="M11.1164 17.8203L27.4446 49.9751L0 17.8203H11.1164Z" fill="#EA6C00"/>
<path d="M43.7726 17.8203L27.4445 49.9751L54.8891 17.8203H43.7726Z" fill="#EA6C00"/>
<path d="M11.1164 17.8203H43.7727L27.4446 49.9751L11.1164 17.8203Z" fill="#FDAD00"/>
<path d="M27.4446 0L11.9758 1.64536L11.1164 17.8204L27.4446 0Z" fill="#FDD231"/>
<path d="M27.4445 0L42.9133 1.64536L43.7726 17.8204L27.4445 0Z" fill="#FDD231"/>
<path d="M54.8892 17.8204L42.9133 1.64539L43.7727 17.8204H54.8892Z" fill="#FDAD00"/>
<path d="M0 17.8204L11.9758 1.64539L11.1164 17.8204H0Z" fill="#FDAD00"/>
<path d="M27.4446 0L11.1164 17.8204H43.7727L27.4446 0Z" fill="#FEEEB7"/>
</g>
<defs>
<clipPath id="clip0_415_225">
<rect width="55" height="50" fill="white"/>
</clipPath>
</defs>
</svg>
