<svg width="55" height="54" viewBox="0 0 55 54" fill="none" xmlns="http://www.w3.org/2000/svg">
<g clip-path="url(#clip0_415_208)">
<path d="M9.73958 0H45.2604C50.6458 0 55 4.38462 55 9.80769V44.1923C55 49.6154 50.6458 54 45.2604 54H9.73958C4.35417 54 0 49.6154 0 44.1923V9.80769C0 4.38462 4.35417 0 9.73958 0Z" fill="#330000"/>
<path d="M26.5833 32.3077H18.0583L16.3167 37.7308C16.2708 37.9385 16.0875 38.0769 15.8812 38.0538H11.5729C11.3208 38.0538 11.2521 37.9154 11.3208 37.6385L18.7 16.2462C18.7687 16.0154 18.8375 15.7615 18.9292 15.4846C19.0208 15 19.0667 14.4923 19.0667 13.9846C19.0437 13.8692 19.1354 13.7539 19.25 13.7308H25.1854C25.3687 13.7308 25.4604 13.8 25.4833 13.9154L33.8479 37.6846C33.9167 37.9385 33.8479 38.0538 33.6187 38.0538H28.8292C28.6687 38.0769 28.5083 37.9615 28.4625 37.8L26.5833 32.3077ZM19.3875 27.6231H25.2083C25.0708 27.1385 24.8875 26.5615 24.6812 25.9615C24.475 25.3385 24.2687 24.6692 24.0625 23.9769C23.8333 23.2615 23.6271 22.5692 23.3979 21.8539C23.1687 21.1385 22.9625 20.4692 22.7792 19.8C22.5958 19.1539 22.4354 18.5539 22.275 18H22.2292C22.0229 18.9923 21.7708 19.9846 21.45 20.9769C21.1062 22.0846 20.7625 23.2385 20.3958 24.3923C20.075 25.5692 19.7312 26.6538 19.3875 27.6231ZM38.9583 17.7692C38.2021 17.7923 37.4687 17.4923 36.9187 16.9615C36.3917 16.3846 36.1167 15.6231 36.1396 14.8385C36.1167 14.0539 36.4146 13.3154 36.9646 12.7846C37.5146 12.2539 38.2479 11.9769 39.0042 11.9769C39.8979 11.9769 40.5854 12.2539 41.0896 12.7846C41.5937 13.3385 41.8687 14.0769 41.8458 14.8385C41.8687 15.6231 41.5937 16.3846 41.0437 16.9615C40.5167 17.5154 39.7375 17.8154 38.9583 17.7692ZM36.3917 37.8V20.0308C36.3917 19.8 36.4833 19.7077 36.6896 19.7077H41.2271C41.4333 19.7077 41.525 19.8231 41.525 20.0308V37.8C41.525 38.0539 41.4333 38.1692 41.2271 38.1692H36.7354C36.5062 38.1692 36.3917 38.0308 36.3917 37.8Z" fill="#FF9A00"/>
</g>
<defs>
<clipPath id="clip0_415_208">
<rect width="55" height="54" fill="white"/>
</clipPath>
</defs>
</svg>
