<svg width="55" height="41" viewBox="0 0 55 41" fill="none" xmlns="http://www.w3.org/2000/svg">
<g clip-path="url(#clip0_415_184)">
<path d="M47.3295 23.5656C45.4118 23.5756 43.7451 24.0349 42.3495 24.7139C41.8375 23.7054 41.3255 22.8067 41.2351 22.1477C41.1347 21.3788 41.0142 20.9095 41.1347 19.9908C41.2552 19.0722 41.7973 17.7641 41.7873 17.6642C41.7773 17.5644 41.6668 17.0951 40.5624 17.0851C39.458 17.0751 38.5042 17.2948 38.3937 17.5843C38.2833 17.8739 38.0724 18.5329 37.9319 19.212C37.7411 20.2105 35.723 23.7753 34.5684 25.6425C34.1969 24.9136 33.8757 24.2745 33.8054 23.7653C33.705 22.9964 33.5845 22.5271 33.705 21.6084C33.8255 20.6898 34.3676 19.3817 34.3576 19.2819C34.3475 19.182 34.2371 18.7127 33.1327 18.7027C32.0283 18.6927 31.0744 18.9124 30.964 19.202C30.8536 19.4915 30.7331 20.1706 30.5022 20.8296C30.2712 21.4886 27.5905 27.4399 26.8877 28.9777C26.5263 29.7665 26.215 30.3956 25.9941 30.825C25.9941 30.825 25.9841 30.8549 25.954 30.9048C25.7632 31.2743 25.6528 31.474 25.6528 31.474C25.6528 31.474 25.6528 31.474 25.6528 31.484C25.5022 31.7536 25.3415 32.0032 25.2612 32.0032C25.201 32.0032 25.0905 31.2843 25.2813 30.3057C25.6829 28.2387 26.6367 25.0234 26.6267 24.9136C26.6267 24.8537 26.8074 24.2945 26.0042 24.0049C25.221 23.7154 24.9399 24.1947 24.8696 24.1947C24.7993 24.1947 24.7491 24.3644 24.7491 24.3644C24.7491 24.3644 25.6226 20.7497 23.0825 20.7497C21.4961 20.7497 19.3074 22.4772 18.223 24.0349C17.5403 24.4044 16.0845 25.1932 14.5283 26.042C13.9359 26.3715 13.3234 26.701 12.7512 27.0105C12.711 26.9706 12.6708 26.9207 12.6307 26.8807C9.55838 23.6155 3.87565 21.3089 4.11661 16.9253C4.20697 15.3276 4.75918 11.1338 15.0303 6.04123C23.4841 1.89729 30.211 3.04561 31.3757 5.59189C33.0423 9.22657 27.7712 15.9767 19.0363 16.9553C15.703 17.3247 13.956 16.0466 13.5142 15.5673C13.0524 15.068 12.9821 15.0381 12.8114 15.1379C12.5303 15.2877 12.711 15.737 12.8114 15.9967C13.0724 16.6757 14.1467 17.8739 15.964 18.463C17.5704 18.9823 21.4761 19.2719 26.205 17.4545C31.4961 15.4175 35.6327 9.75579 34.4178 5.01273C33.203 0.199778 25.1708 -1.3879 17.5704 1.29817C13.0524 2.89583 8.15276 5.41215 4.62866 8.68736C0.441912 12.5817 -0.220738 15.9667 0.0503461 17.3846C1.02424 22.4173 8.00215 25.6925 10.7933 28.1189C10.6528 28.1988 10.5222 28.2687 10.4118 28.3286C9.01621 29.0176 3.69492 31.7836 2.36962 34.7093C0.863599 38.0244 2.61059 40.4009 3.76521 40.7205C7.34954 41.709 11.0343 39.9316 13.0122 36.9959C14.9901 34.0602 14.7491 30.2458 13.8355 28.4984C13.8254 28.4784 13.8154 28.4584 13.7953 28.4384C14.1568 28.2288 14.5283 28.0091 14.8897 27.7994C15.6026 27.38 16.3054 26.9906 16.9078 26.671C16.5664 27.5997 16.3154 28.7081 16.1949 30.3057C16.0443 32.183 16.8174 34.6194 17.8315 35.578C18.2833 35.9974 18.8154 36.0074 19.1568 36.0074C20.3415 36.0074 20.8736 35.0288 21.466 33.8705C22.1889 32.4526 22.8415 30.805 22.8415 30.805C22.8415 30.805 22.0283 35.2585 24.2371 35.2585C25.0403 35.2585 25.8536 34.22 26.215 33.6908C26.215 33.7007 26.215 33.7007 26.215 33.7007C26.215 33.7007 26.2351 33.6708 26.2752 33.6009C26.3556 33.4711 26.4058 33.3912 26.4058 33.3912C26.4058 33.3912 26.4058 33.3812 26.4058 33.3712C26.7271 32.812 27.4499 31.5439 28.5242 29.437C29.9098 26.721 31.2451 23.3259 31.2451 23.3259C31.2451 23.3259 31.3656 24.1547 31.7773 25.5327C32.0182 26.3415 32.5202 27.2302 32.9218 28.089C32.6005 28.5383 32.3997 28.7879 32.3997 28.7879C32.3997 28.7879 32.3997 28.7879 32.4098 28.7979C32.1487 29.1374 31.8676 29.5069 31.5564 29.8664C30.462 31.1645 29.1568 32.6523 28.9761 33.0816C28.7652 33.5909 28.8154 33.9604 29.217 34.2599C29.5082 34.4796 30.0303 34.5096 30.5624 34.4796C31.5463 34.4097 32.2391 34.1701 32.5805 34.0203C33.1126 33.8306 33.7351 33.541 34.3174 33.1116C35.3917 32.3228 36.0443 31.1944 35.9841 29.7066C35.954 28.8878 35.6829 28.069 35.3516 27.3001C35.452 27.1603 35.5423 27.0205 35.6427 26.8807C37.3395 24.4143 38.6548 21.7083 38.6548 21.7083C38.6548 21.7083 38.7752 22.5371 39.1869 23.9151C39.3877 24.614 39.7993 25.3729 40.1608 26.1119C38.5644 27.4 37.5805 28.8978 37.2291 29.8763C36.5965 31.6937 37.0885 32.5125 38.0222 32.7022C38.4439 32.7921 39.0463 32.5924 39.4881 32.4026C40.0504 32.2229 40.713 31.9134 41.3455 31.454C42.4198 30.6652 43.454 29.5668 43.3937 28.079C43.3636 27.4 43.1829 26.7309 42.9319 26.0819C44.2873 25.5227 46.0343 25.2132 48.2632 25.4728C53.0423 26.032 53.9861 28.9976 53.8054 30.2458C53.6247 31.494 52.6206 32.173 52.2893 32.3827C51.958 32.5924 51.8475 32.6623 51.8777 32.812C51.9178 33.0317 52.0785 33.0217 52.3596 32.9818C52.7512 32.9119 54.8696 31.9733 54.96 29.6766C55.1106 26.7409 52.2993 23.5356 47.3295 23.5656ZM10.462 35.9275C8.87565 37.645 6.66681 38.294 5.713 37.7448C4.6889 37.1557 5.09051 34.6194 7.0383 32.8021C8.22304 31.6937 9.74914 30.6652 10.7632 30.0361C10.9941 29.8963 11.3355 29.6966 11.7471 29.447C11.8174 29.407 11.8576 29.3871 11.8576 29.3871C11.9379 29.3371 12.0182 29.2872 12.0985 29.2373C12.8114 31.8335 12.1287 34.1201 10.462 35.9275ZM22.0082 28.1189C21.456 29.457 20.3014 32.8819 19.5985 32.6922C18.9961 32.5325 18.6246 29.9363 19.4781 27.37C19.9098 26.0819 20.8234 24.5441 21.3556 23.945C22.219 22.9864 23.1728 22.6669 23.4038 23.0563C23.6949 23.5656 22.3495 27.2801 22.0082 28.1189ZM31.5363 32.6523C31.3054 32.7721 31.0845 32.852 30.9841 32.7921C30.9138 32.7521 31.0845 32.5924 31.0845 32.5924C31.0845 32.5924 32.2793 31.3142 32.7512 30.7351C33.0222 30.3956 33.3435 29.9962 33.6849 29.5468C33.6849 29.5868 33.6849 29.6367 33.6849 29.6766C33.6849 31.2044 32.1989 32.2329 31.5363 32.6523ZM38.8857 30.9847C38.715 30.8649 38.7451 30.4655 39.3174 29.2173C39.5383 28.728 40.0604 27.9092 40.954 27.1204C41.0544 27.4399 41.1246 27.7495 41.1146 28.039C41.1046 29.9662 39.719 30.6852 38.8857 30.9847Z" fill="#CD6799"/>
</g>
<defs>
<clipPath id="clip0_415_184">
<rect width="55" height="41" fill="white"/>
</clipPath>
</defs>
</svg>
