<svg width="49" height="55" viewBox="0 0 49 55" fill="none" xmlns="http://www.w3.org/2000/svg">
<g clip-path="url(#clip0_415_160)">
<path d="M24.5666 55C23.8311 55 23.1005 54.8068 22.4556 54.435L15.7362 50.4516C14.7325 49.8896 15.2223 49.6909 15.5533 49.5764C16.8914 49.1072 17.163 49.0012 18.5913 48.189C18.7415 48.1033 18.9379 48.1335 19.0916 48.2244L24.2538 51.2916C24.4402 51.3925 24.7047 51.3925 24.8775 51.2916L45.0052 39.6583C45.1916 39.5524 45.3125 39.3354 45.3125 39.1135V15.857C45.3125 15.625 45.1916 15.4181 45.0012 15.3021L24.8815 3.67891C24.6951 3.56792 24.4482 3.56792 24.2618 3.67891L4.14624 15.3021C3.95126 15.4131 3.82732 15.63 3.82732 15.852V39.1084C3.82732 39.3304 3.94824 39.5423 4.13969 39.6482L9.6515 42.8365C12.6442 44.3348 14.4731 42.5691 14.4731 40.7934V17.8396C14.4731 17.5117 14.73 17.2595 15.0575 17.2595H17.6068C17.9243 17.2595 18.1862 17.5117 18.1862 17.8396V40.8035C18.1862 44.7989 16.0097 47.0943 12.226 47.0943C11.0622 47.0943 10.1452 47.0943 7.58583 45.8331L2.30578 42.7861C1.00088 42.0294 0.194763 40.6168 0.194763 39.1084V15.852C0.194763 14.3385 1.00088 12.926 2.30578 12.1794L22.4536 0.541053C23.7283 -0.180351 25.4211 -0.180351 26.6857 0.541053L46.8084 12.1844C48.1082 12.9361 48.9194 14.3436 48.9194 15.857V39.1135C48.9194 40.6219 48.1082 42.0294 46.8084 42.7861L26.6857 54.4244C26.0408 54.7977 25.3103 54.9894 24.5646 54.9894" fill="#689F63"/>
<path d="M30.9347 38.2377C22.2239 38.2377 20.3975 34.3009 20.3975 30.9989C20.3975 30.6849 20.6546 30.4347 20.974 30.4347H23.5454C23.8295 30.4347 24.0687 30.6383 24.1135 30.9145C24.5022 33.4943 25.6584 34.7954 30.9258 34.7954C35.1217 34.7954 36.9058 33.8623 36.9058 31.6716C36.9058 30.4107 36.3975 29.4735 29.8793 28.8455C24.4275 28.3156 21.0588 27.1332 21.0588 22.8402C21.0588 18.8857 24.4474 16.5306 30.1234 16.5306C36.4971 16.5306 39.6566 18.709 40.0552 23.3897C40.0702 23.5516 40.0104 23.7086 39.9008 23.8264C39.7911 23.9392 39.6366 24.0079 39.4772 24.0079H36.8908C36.6217 24.0079 36.3875 23.8214 36.3327 23.5663C35.7098 20.8531 34.2048 19.9847 30.1135 19.9847C25.5338 19.9847 25.0006 21.5547 25.0006 22.7322C25.0006 24.16 25.6285 24.577 31.8078 25.3817C37.9273 26.1814 40.8326 27.3098 40.8326 31.544C40.8326 35.8125 37.2147 38.2608 30.9058 38.2608" fill="#689F63"/>
</g>
<defs>
<clipPath id="clip0_415_160">
<rect width="49" height="55" fill="white"/>
</clipPath>
</defs>
</svg>
