<svg width="55" height="55" viewBox="0 0 55 55" fill="none" xmlns="http://www.w3.org/2000/svg">
<g clip-path="url(#clip0_415_142)">
<path d="M51 0H4C1.79086 0 0 1.79086 0 4V51C0 53.2091 1.79086 55 4 55H51C53.2091 55 55 53.2091 55 51V4C55 1.79086 53.2091 0 51 0Z" fill="#F7DF1E"/>
<path d="M36.946 42.9689C38.0539 44.7778 39.4952 46.1074 42.0444 46.1074C44.186 46.1074 45.554 45.0371 45.554 43.5582C45.554 41.786 44.1484 41.1583 41.7913 40.1273L40.4992 39.5729C36.7697 37.984 34.2921 35.9935 34.2921 31.7856C34.2921 27.9094 37.2455 24.9586 41.8611 24.9586C45.1471 24.9586 47.5095 26.1023 49.2119 29.0967L45.1873 31.6808C44.3012 30.092 43.3452 29.466 41.8611 29.466C40.3473 29.466 39.3879 30.4263 39.3879 31.6808C39.3879 33.2313 40.3482 33.859 42.5656 34.8193L43.8577 35.3728C48.249 37.2559 50.7283 39.1757 50.7283 43.4919C50.7283 48.145 47.073 50.6942 42.1641 50.6942C37.3642 50.6942 34.2633 48.4069 32.746 45.409L36.946 42.9689ZM18.6887 43.4168C19.5006 44.8573 20.2391 46.0751 22.0148 46.0751C23.7129 46.0751 24.7841 45.4108 24.7841 42.8275V25.2537H29.9523V42.8973C29.9523 48.2489 26.8147 50.6846 22.2348 50.6846C18.0967 50.6846 15.7003 48.5431 14.4816 45.9638L18.6887 43.4168Z" fill="black"/>
</g>
<defs>
<clipPath id="clip0_415_142">
<rect width="55" height="55" fill="white"/>
</clipPath>
</defs>
</svg>
