<svg width="49" height="55" viewBox="0 0 49 55" fill="none" xmlns="http://www.w3.org/2000/svg">
<g clip-path="url(#clip0_415_177)">
<path d="M4.2138 49.502L-0.194763 0H48.248L43.8348 49.4942L23.997 55L4.2138 49.502Z" fill="#264DE4"/>
<path d="M40.0565 46.3427L43.828 4.04749H24.0266V50.7917L40.0565 46.3427Z" fill="#2965F1"/>
<path d="M9.91198 22.4071L10.4555 28.4782H24.0267V22.4071H9.91198ZM9.37106 16.19H24.0267V10.1188H8.81973L9.37106 16.19ZM24.0267 38.1747L24.0001 38.1818L17.246 36.356L16.8143 31.5139H10.7263L11.576 41.0466L23.9988 44.4991L24.0267 44.4913V38.1747Z" fill="#EBEBEB"/>
<path d="M24.0057 22.4071V28.4783H31.4735L30.7696 36.3522L24.0057 38.1797V44.4961L36.4383 41.0466L36.5295 40.0208L37.9545 24.0373L38.1026 22.4071L39.1974 10.1188H24.0057V16.19H32.5513L31.9993 22.4071H24.0057Z" fill="#FAFAFF"/>
</g>
<defs>
<clipPath id="clip0_415_177">
<rect width="49" height="55" fill="white"/>
</clipPath>
</defs>
</svg>
