<svg width="56" height="54" viewBox="0 0 56 54" fill="none" xmlns="http://www.w3.org/2000/svg">
<g clip-path="url(#clip0_415_213)">
<path d="M9.91667 0H46.0833C51.5667 0 56 4.38462 56 9.80769V44.1923C56 49.6154 51.5667 54 46.0833 54H9.91667C4.43333 54 0 49.6154 0 44.1923V9.80769C0 4.38462 4.43333 0 9.91667 0Z" fill="#001E36"/>
<path d="M12.6 37.8692V14.123C12.6 13.9615 12.67 13.8692 12.8333 13.8692C13.23 13.8692 13.6033 13.8692 14.14 13.8461C14.7 13.823 15.2833 13.823 15.9133 13.7999C16.5433 13.7769 17.22 13.7769 17.9433 13.7538C18.6667 13.7307 19.3667 13.7307 20.0667 13.7307C21.98 13.7307 23.5667 13.9615 24.8733 14.4461C26.04 14.8384 27.1133 15.4846 28 16.3384C28.7467 17.0769 29.33 17.9769 29.7033 18.9692C30.0533 19.9384 30.24 20.9307 30.24 21.9692C30.24 23.9538 29.7733 25.5923 28.84 26.8846C27.9067 28.1769 26.6 29.1461 25.0833 29.6999C23.4967 30.2769 21.7467 30.4846 19.8333 30.4846C19.2733 30.4846 18.9 30.4846 18.6667 30.4615C18.4333 30.4384 18.1067 30.4384 17.6633 30.4384V37.8461C17.6867 38.0076 17.57 38.1461 17.4067 38.1692C17.3833 38.1692 17.36 38.1692 17.3133 38.1692H12.88C12.6933 38.1692 12.6 38.0769 12.6 37.8692ZM17.6867 18.323V26.0769C18.0133 26.0999 18.3167 26.123 18.5967 26.123H19.8333C20.7433 26.123 21.6533 25.9846 22.5167 25.7076C23.2633 25.4999 23.9167 25.0615 24.43 24.4846C24.92 23.9076 25.1533 23.123 25.1533 22.1076C25.1767 21.3923 24.99 20.6769 24.6167 20.0538C24.22 19.4538 23.66 18.9923 22.9833 18.7384C22.12 18.3923 21.1867 18.2538 20.23 18.2769C19.6233 18.2769 19.0867 18.2769 18.6433 18.2999C18.1767 18.2769 17.85 18.2999 17.6867 18.323Z" fill="#31A8FF"/>
<path d="M44.8 24.6691C44.1 24.2999 43.3533 24.046 42.56 23.8845C41.6967 23.6999 40.8333 23.5845 39.9467 23.5845C39.48 23.5614 38.99 23.6307 38.5467 23.746C38.2433 23.8153 37.9867 23.9768 37.8233 24.2076C37.7067 24.3922 37.6367 24.623 37.6367 24.8307C37.6367 25.0384 37.73 25.246 37.87 25.4307C38.08 25.6845 38.36 25.8922 38.6633 26.0537C39.2 26.3307 39.76 26.5845 40.32 26.8153C41.58 27.2307 42.7933 27.8076 43.9133 28.4999C44.6833 28.9845 45.3133 29.6307 45.7567 30.4153C46.13 31.1537 46.3167 31.9614 46.2933 32.7922C46.3167 33.8768 45.99 34.9614 45.3833 35.8614C44.73 36.7845 43.82 37.4999 42.77 37.9153C41.6267 38.3999 40.2267 38.6537 38.5467 38.6537C37.4733 38.6537 36.4233 38.5614 35.3733 38.3537C34.5567 38.2153 33.74 37.9614 32.9933 37.6153C32.83 37.523 32.7133 37.3614 32.7367 37.1768V33.1614C32.7367 33.0922 32.76 32.9999 32.83 32.9537C32.9 32.9076 32.97 32.9307 33.04 32.9768C33.95 33.5076 34.9067 33.8768 35.9333 34.1076C36.82 34.3384 37.7533 34.4537 38.6867 34.4537C39.5733 34.4537 40.2033 34.3383 40.6233 34.1307C40.9967 33.9691 41.2533 33.5768 41.2533 33.1614C41.2533 32.8384 41.0667 32.5384 40.6933 32.2383C40.32 31.9384 39.55 31.5922 38.4067 31.1537C37.2167 30.7384 36.12 30.1845 35.0933 29.4922C34.37 28.9845 33.7633 28.3153 33.32 27.5307C32.9467 26.7922 32.76 25.9845 32.7833 25.1768C32.7833 24.1845 33.0633 23.2384 33.5767 22.3845C34.16 21.4614 35.0233 20.723 36.0267 20.2614C37.1233 19.7076 38.5 19.4537 40.1567 19.4537C41.1133 19.4537 42.0933 19.523 43.05 19.6614C43.75 19.7537 44.4267 19.9384 45.0567 20.1922C45.15 20.2153 45.2433 20.3076 45.29 20.3999C45.3133 20.4922 45.3367 20.5845 45.3367 20.6768V24.4384C45.3367 24.5307 45.29 24.623 45.22 24.6691C45.01 24.7153 44.8933 24.7153 44.8 24.6691Z" fill="#31A8FF"/>
</g>
<defs>
<clipPath id="clip0_415_213">
<rect width="56" height="54" fill="white"/>
</clipPath>
</defs>
</svg>
