<svg width="55" height="49" viewBox="0 0 55 49" fill="none" xmlns="http://www.w3.org/2000/svg">
<g clip-path="url(#clip0_415_152)">
<path d="M27.5 29.4088C30.2074 29.4088 32.4022 27.2111 32.4022 24.5001C32.4022 21.789 30.2074 19.5913 27.5 19.5913C24.7926 19.5913 22.5978 21.789 22.5978 24.5001C22.5978 27.2111 24.7926 29.4088 27.5 29.4088Z" fill="#61DAFB"/>
<path fill-rule="evenodd" clip-rule="evenodd" d="M4.06396 21.4741C2.8807 22.5437 2.3913 23.5683 2.3913 24.5C2.3913 25.4318 2.8807 26.4564 4.06396 27.526C5.24709 28.5954 7.02625 29.6134 9.32651 30.4929C13.9188 32.2487 20.3438 33.3597 27.5 33.3597C34.6562 33.3597 41.0812 32.2487 45.6735 30.4929C47.9738 29.6134 49.7529 28.5954 50.936 27.526C52.1193 26.4564 52.6087 25.4318 52.6087 24.5C52.6087 23.5683 52.1193 22.5437 50.936 21.4741C49.7529 20.4047 47.9738 19.3867 45.6735 18.5072C41.0812 16.7514 34.6562 15.6404 27.5 15.6404C20.3438 15.6404 13.9188 16.7514 9.32651 18.5072C7.02625 19.3867 5.24709 20.4047 4.06396 21.4741ZM8.47353 16.2702C13.4015 14.3861 20.1287 13.2458 27.5 13.2458C34.8713 13.2458 41.5985 14.3861 46.5265 16.2702C48.9864 17.2107 51.0594 18.3598 52.5384 19.6967C54.0173 21.0335 55 22.6547 55 24.5C55 26.3454 54.0173 27.9666 52.5384 29.3034C51.0594 30.6403 48.9864 31.7894 46.5265 32.7299C41.5985 34.614 34.8713 35.7542 27.5 35.7542C20.1287 35.7542 13.4015 34.614 8.47353 32.7299C6.01364 31.7894 3.94061 30.6403 2.4616 29.3034C0.982711 27.9666 0 26.3454 0 24.5C0 22.6547 0.982711 21.0335 2.4616 19.6967C3.94061 18.3598 6.01364 17.2107 8.47353 16.2702Z" fill="#61DAFB"/>
<path fill-rule="evenodd" clip-rule="evenodd" d="M18.399 2.66362C16.8823 2.17231 15.7515 2.26019 14.9456 2.72607C14.1398 3.19196 13.4984 4.12863 13.165 5.68953C12.8316 7.25026 12.8407 9.30212 13.2302 11.7366C14.0079 16.5969 16.2594 22.7241 19.8376 28.9298C23.4157 35.1356 27.5891 40.1517 31.4037 43.2562C33.3145 44.8112 35.0845 45.8451 36.601 46.3364C38.1177 46.8277 39.2485 46.7398 40.0543 46.2739C40.8602 45.808 41.5016 44.8713 41.835 43.3104C42.1684 41.7497 42.1593 39.6979 41.7697 37.2634C40.9921 32.4031 38.7406 26.2759 35.1624 20.0701C31.5843 13.8644 27.4109 8.84826 23.5962 5.74377C21.6855 4.18874 19.9155 3.15489 18.399 2.66362ZM25.1045 3.88558C29.198 7.21701 33.5477 12.4806 37.2334 18.8729C40.919 25.2651 43.2964 31.669 44.1309 36.8846C44.5475 39.488 44.5902 41.8602 44.1734 43.8113C43.7567 45.7622 42.846 47.4249 41.25 48.3476C39.654 49.2703 37.7606 49.2287 35.865 48.6146C33.9692 48.0005 31.9389 46.7773 29.8955 45.1144C25.802 41.783 21.4523 36.5193 17.7666 30.1271C14.081 23.7348 11.7035 17.331 10.8691 12.1154C10.4525 9.51198 10.4098 7.13974 10.8266 5.18869C11.2433 3.23782 12.154 1.57505 13.75 0.652367C15.346 -0.27032 17.2394 -0.228698 19.135 0.385367C21.0308 0.999485 23.0611 2.22264 25.1045 3.88558Z" fill="#61DAFB"/>
<path fill-rule="evenodd" clip-rule="evenodd" d="M41.835 5.68948C41.5016 4.12858 40.8602 3.19191 40.0543 2.72603C39.2485 2.26014 38.1177 2.17226 36.601 2.66358C35.0845 3.15484 33.3145 4.1887 31.4037 5.74372C27.5891 8.84822 23.4157 13.8643 19.8375 20.0701C16.2594 26.2759 14.0079 32.4031 13.2302 37.2633C12.8407 39.6978 12.8316 41.7497 13.165 43.3104C13.4984 44.8713 14.1398 45.808 14.9456 46.2739C15.7515 46.7397 16.8823 46.8276 18.399 46.3363C19.9155 45.845 21.6855 44.8112 23.5962 43.2562C27.4109 40.1517 31.5843 35.1356 35.1624 28.9298C38.7405 22.724 40.9921 16.5968 41.7697 11.7366C42.1593 9.30207 42.1684 7.25021 41.835 5.68948ZM44.1309 12.1154C43.2964 17.3309 40.919 23.7348 37.2334 30.127C33.5477 36.5193 29.198 41.7829 25.1045 45.1144C23.0611 46.7773 21.0308 48.0004 19.135 48.6146C17.2394 49.2286 15.346 49.2703 13.75 48.3476C12.154 47.4249 11.2433 45.7621 10.8266 43.8112C10.4098 41.8602 10.4525 39.488 10.8691 36.8845C11.7035 31.669 14.081 25.2651 17.7666 18.8728C21.4523 12.4806 25.802 7.21696 29.8955 3.88553C31.9389 2.22259 33.9692 0.999438 35.865 0.38532C37.7606 -0.228745 39.654 -0.270366 41.25 0.65232C42.846 1.57501 43.7567 3.23777 44.1734 5.18865C44.5902 7.13969 44.5475 9.51193 44.1309 12.1154Z" fill="#61DAFB"/>
</g>
<defs>
<clipPath id="clip0_415_152">
<rect width="55" height="49" fill="white"/>
</clipPath>
</defs>
</svg>
