<svg width="56" height="37" viewBox="0 0 56 37" fill="none" xmlns="http://www.w3.org/2000/svg">
<g clip-path="url(#clip0_415_188)">
<mask id="mask0_415_188" style="mask-type:luminance" maskUnits="userSpaceOnUse" x="0" y="0" width="56" height="37">
<path d="M0 0H56V36.3273H0V0Z" fill="white"/>
</mask>
<g mask="url(#mask0_415_188)">
<path fill-rule="evenodd" clip-rule="evenodd" d="M28 0C20.5333 0 15.8667 4.03636 14 12.1091C16.8 8.07273 20.0667 6.55909 23.8 7.56818C25.9301 8.14336 27.4524 9.81509 29.1376 11.664C31.8827 14.6767 35.0601 18.1636 42 18.1636C49.4667 18.1636 54.1333 14.1273 56 6.05455C53.2 10.0909 49.9333 11.6045 46.2 10.5955C44.0699 10.0203 42.5476 8.34855 40.8624 6.49967C38.1173 3.48697 34.9398 0 28 0ZM14 18.1636C6.53333 18.1636 1.86667 22.2 0 30.2727C2.8 26.2364 6.06667 24.7227 9.8 25.7318C11.9301 26.3081 13.4524 27.9787 15.1376 29.8276C17.8827 32.8403 21.0601 36.3273 28 36.3273C35.4667 36.3273 40.1333 32.2909 42 24.2182C39.2 28.2545 35.9333 29.7682 32.2 28.7591C30.0699 28.1839 28.5476 26.5122 26.8624 24.6633C24.1173 21.6506 20.9399 18.1636 14 18.1636Z" fill="#38BDF8"/>
</g>
</g>
<defs>
<clipPath id="clip0_415_188">
<rect width="56" height="37" fill="white"/>
</clipPath>
</defs>
</svg>
