<svg width="36" height="56" viewBox="0 0 36 56" fill="none" xmlns="http://www.w3.org/2000/svg">
<g clip-path="url(#clip0_415_200)">
<path d="M9.00192 56C13.9689 56 18.0001 51.8187 18.0001 46.6667V37.3334H9.00192C4.03492 37.3334 0.00372314 41.5147 0.00372314 46.6667C0.00372314 51.8187 4.03492 56 9.00192 56Z" fill="#0ACF83"/>
<path d="M0.00372314 28C0.00372314 22.848 4.03492 18.6666 9.00192 18.6666H18.0001V37.3333H9.00192C4.03492 37.3333 0.00372314 33.152 0.00372314 28Z" fill="#A259FF"/>
<path d="M0.003479 9.33333C0.003479 4.18133 4.03467 0 9.00168 0H17.9999V18.6667H9.00168C4.03467 18.6667 0.003479 14.4853 0.003479 9.33333Z" fill="#F24E1E"/>
<path d="M18 0H26.9982C31.9652 0 35.9964 4.18133 35.9964 9.33333C35.9964 14.4853 31.9652 18.6667 26.9982 18.6667H18V0Z" fill="#FF7262"/>
<path d="M35.9964 28C35.9964 33.152 31.9652 37.3333 26.9982 37.3333C22.0312 37.3333 18 33.152 18 28C18 22.848 22.0312 18.6666 26.9982 18.6666C31.9652 18.6666 35.9964 22.848 35.9964 28Z" fill="#1ABCFE"/>
</g>
<defs>
<clipPath id="clip0_415_200">
<rect width="36" height="56" fill="white"/>
</clipPath>
</defs>
</svg>
